<?xml version="1.0" encoding="utf-8"?>
<!-- Generator: Adobe Illustrator 26.3.1, SVG Export Plug-In . SVG Version: 6.00 Build 0)  -->
<svg version="1.1" xmlns="http://www.w3.org/2000/svg" xmlns:xlink="http://www.w3.org/1999/xlink" x="0px" y="0px"
	 viewBox="0 0 841.89 595.28" style="enable-background:new 0 0 841.89 595.28;" xml:space="preserve">
<style type="text/css">
	.st0{fill:#8CC971;}
</style>
<g id="Planner">
	<g>
		<g>
			<path class="st0" d="M489.99,486.07l-0.05,0.02l0.03-0.04C489.97,486.06,489.97,486.06,489.99,486.07z"/>
			<path class="st0" d="M419.75,466.16h-0.01c0.44,0.57,0.87,1.14,1.31,1.72C420.62,467.31,420.19,466.74,419.75,466.16z
				 M430.86,481.2c0.14,0.21,0.29,0.41,0.43,0.6c0,0.01,0,0.01,0.01,0.01c0,0,0,0,0-0.01C431.15,481.6,431.01,481.4,430.86,481.2z
				 M436.49,489.15c-0.02-0.03-0.04-0.07-0.08-0.1c0.02,0.03,0.04,0.07,0.07,0.1c0.33,0.47,0.66,0.95,0.99,1.42
				C437.14,490.09,436.81,489.62,436.49,489.15z M444.22,500.48c-0.26-0.41-0.54-0.8-0.81-1.21c0.27,0.41,0.54,0.8,0.8,1.21
				c0.04,0.05,0.08,0.12,0.12,0.18C444.28,500.59,444.25,500.54,444.22,500.48z M463.98,532.23c-0.01-0.01-0.01-0.02-0.02-0.03
				c-0.03-0.03-0.05-0.08-0.08-0.12c0.03,0.05,0.06,0.1,0.08,0.14c0.01,0.01,0.02,0.03,0.03,0.04
				C463.98,532.25,463.98,532.24,463.98,532.23z M551.47,501.75c-1.5,0.53-2.96,1.04-4.4,1.56c1.44-0.49,2.9-1.01,4.4-1.55
				l0.01-0.01H551.47z M588.68,488.58c0.13-0.04,0.26-0.09,0.4-0.13c0.8-0.29,1.62-0.57,2.43-0.87
				C590.56,487.91,589.62,488.25,588.68,488.58z M715.98,443.48c-2.58,0.92-5.15,1.84-7.68,2.74c2.53-0.9,5.09-1.8,7.69-2.73
				c3.36-1.2,6.77-2.41,10.25-3.64C722.77,441.07,719.36,442.29,715.98,443.48z M684.38,454.71c2.96-1.06,5.96-2.11,9.01-3.2
				C690.34,452.58,687.34,453.65,684.38,454.71z M660.23,463.24c0,0,0,0,0,0.01c0.6-0.22,1.22-0.43,1.83-0.65
				C661.44,462.81,660.84,463.02,660.23,463.24z"/>
		</g>
		<path class="st0" d="M684.38,454.71c2.96-1.06,5.96-2.11,9.01-3.2C690.34,452.58,687.34,453.65,684.38,454.71z M684.38,454.71
			c2.96-1.06,5.96-2.11,9.01-3.2C690.34,452.58,687.34,453.65,684.38,454.71z M263.76,336.72h-0.01c-0.01,0-0.02,0-0.02,0
			c0.4,0.14,0.79,0.29,1.18,0.43c1.42,0.52,2.85,1.03,4.24,1.58C267.37,338.03,265.57,337.36,263.76,336.72z M278.08,342.44
			c2.36,1.06,4.72,2.14,7.06,3.29C282.8,344.58,280.44,343.48,278.08,342.44z M319.06,365.79c-1.09-0.76-2.18-1.51-3.28-2.23
			c1.1,0.74,2.19,1.48,3.28,2.24c0.3,0.2,0.58,0.41,0.88,0.62C319.65,366.2,319.36,366,319.06,365.79z M684.38,454.71
			c2.96-1.06,5.96-2.11,9.01-3.2C690.34,452.58,687.34,453.65,684.38,454.71z"/>
	</g>
	<path class="st0" d="M269.15,338.73c-1.4-0.55-2.83-1.07-4.24-1.58c-0.38-0.14-0.78-0.29-1.18-0.43v-0.01c0.01,0,0.01,0,0.02,0.01
		h0.01C265.57,337.36,267.37,338.03,269.15,338.73z"/>
	<path class="st0" d="M285.14,345.73c-2.34-1.14-4.7-2.23-7.06-3.29C280.44,343.48,282.8,344.58,285.14,345.73z"/>
	<path class="st0" d="M319.94,366.42c-0.3-0.21-0.58-0.42-0.88-0.62c-1.09-0.76-2.18-1.51-3.28-2.24c1.1,0.73,2.19,1.47,3.28,2.23
		C319.36,366,319.65,366.2,319.94,366.42z"/>
	<path class="st0" d="M431.3,481.8c0,0.01,0,0.01,0,0.01c-0.01,0-0.01,0-0.01-0.01H431.3z"/>
	<path class="st0" d="M437.47,490.56c-0.33-0.47-0.66-0.95-0.99-1.42h0.01C436.81,489.62,437.14,490.09,437.47,490.56z"/>
	<path class="st0" d="M444.33,500.66c-0.04-0.05-0.08-0.12-0.12-0.18h0.01C444.25,500.54,444.28,500.59,444.33,500.66z"/>
	<path class="st0" d="M463.95,532.19c0,0.01,0,0.02,0,0.02c-0.02-0.04-0.04-0.09-0.08-0.14
		C463.9,532.12,463.92,532.16,463.95,532.19z"/>
	<path class="st0" d="M463.99,532.26c-0.01-0.01-0.02-0.03-0.03-0.04l0.02,0.01C463.98,532.24,463.98,532.25,463.99,532.26z"/>
	<g>
		<g>
			<path class="st0" d="M743.13,423.8c-6.15-27.64-20.46-45.61-37.31-46.89c-0.38-0.03-0.79-0.07-1.2-0.08
				c-0.08-0.01-0.16-0.01-0.24-0.01c-0.2-0.01-0.41-0.01-0.6-0.01c-0.62,0-1.23,0.02-1.84,0.07c-8.43,0.6-16.39,5.38-22.99,13.73
				l-11.42,3.73l-39.07,12.73c-3.06-1.18-6.23-1.78-9.51-1.78c-8.79,0-17.03,4.5-23.87,12.66l-63.03,20.55
				c-1.01-0.12-2.05-0.19-3.08-0.19c-7.27,0-13.93,2.64-19.72,7.62l-75.63,24.64c17,23.1,28.83,42.31,34.38,51.68
				c9.12-3.18,30.78-10.85,82.12-29c0.02-0.01,0.04-0.01,0.07-0.02c0.48,2.54,0.9,5.29,1.25,8.18c0.01,0.11,0.02,0.22,0.03,0.33
				h0.01l-0.01,0.01c-1.5,0.54-2.96,1.06-4.4,1.55c-0.01,0.01-0.01,0.01-0.01,0.01c-1.29,0.46-2.54,0.9-3.78,1.34
				c-0.62,0.22-1.23,0.44-1.84,0.65c-1.22,0.43-2.42,0.86-3.6,1.26l-0.01,0.01c-1.18,0.42-2.34,0.82-3.47,1.22
				c-2.87,1.02-5.62,2-8.26,2.92c-1.04,0.37-2.08,0.74-3.09,1.09l-0.01,0.01c-1.02,0.36-2.02,0.71-3,1.07
				c-1.97,0.69-3.86,1.36-5.7,2.01c-0.9,0.32-1.8,0.64-2.68,0.95c-3.09,1.1-5.98,2.11-8.68,3.07c-0.96,0.34-1.89,0.67-2.79,0.98
				c-0.2,0.08-0.38,0.14-0.58,0.21c-1.09,0.38-2.14,0.76-3.17,1.12c-3.93,1.4-7.38,2.61-10.4,3.67c-0.25,0.1-0.51,0.19-0.75,0.26
				c-0.03,0.01-0.07,0.02-0.09,0.03c-0.1,0.03-0.19,0.07-0.29,0.1c-0.02,0.01-0.04,0.02-0.08,0.02c-0.35,0.13-0.7,0.25-1.04,0.37
				c-0.48,0.18-0.96,0.34-1.41,0.51c-0.31,0.11-0.6,0.21-0.9,0.32c-0.74,0.26-1.44,0.51-2.11,0.74c-0.42,0.15-0.81,0.29-1.21,0.43
				c-2.54,0.9-4.62,1.64-6.32,2.23c-0.46,0.16-0.9,0.32-1.31,0.46c-1.03,0.36-1.89,0.67-2.61,0.91c-0.29,0.11-0.55,0.2-0.79,0.27
				c-0.24,0.1-0.46,0.18-0.67,0.24c-0.15,0.05-0.3,0.11-0.43,0.15c-0.24,0.09-0.45,0.16-0.64,0.22c-0.11,0.04-0.22,0.08-0.31,0.11
				c-0.23,0.08-0.41,0.14-0.53,0.19c-0.03,0.01-0.07,0.02-0.1,0.03c-0.09,0.03-0.14,0.04-0.18,0.07c-0.01,0-0.02,0.01-0.03,0.01
				c-0.03,0.01-0.04,0.01-0.04,0.01s-0.03-0.07-0.11-0.2c-0.02-0.03-0.04-0.09-0.08-0.14c-0.01-0.01-0.02-0.03-0.03-0.04
				c-0.02-0.04-0.04-0.09-0.08-0.14c-0.24-0.43-0.62-1.09-1.13-1.99c-0.14-0.24-0.3-0.51-0.45-0.78c-0.14-0.23-0.27-0.47-0.43-0.73
				c-0.11-0.19-0.22-0.37-0.33-0.57c-0.12-0.2-0.24-0.41-0.36-0.62c-0.25-0.42-0.51-0.86-0.78-1.32c-0.24-0.41-0.49-0.84-0.77-1.28
				c-0.08-0.13-0.15-0.26-0.24-0.41c-0.11-0.19-0.22-0.37-0.34-0.57c-0.08-0.13-0.15-0.26-0.24-0.4c-0.24-0.41-0.49-0.82-0.76-1.26
				c-0.35-0.57-0.71-1.17-1.09-1.79c-0.38-0.62-0.77-1.25-1.18-1.9c-0.31-0.49-0.62-0.99-0.93-1.51c-0.32-0.52-0.65-1.04-0.99-1.58
				c-0.45-0.71-0.91-1.45-1.39-2.2c-0.42-0.65-0.84-1.32-1.28-2c-0.32-0.49-0.64-0.99-0.96-1.5c-0.35-0.55-0.71-1.1-1.08-1.67
				c-0.7-1.09-1.43-2.2-2.18-3.34c-0.57-0.87-1.15-1.75-1.75-2.65c-0.3-0.45-0.6-0.9-0.9-1.35c-0.04-0.05-0.08-0.12-0.12-0.18
				c-0.26-0.41-0.53-0.8-0.8-1.21c-0.63-0.92-1.25-1.87-1.9-2.83c-1.3-1.91-2.64-3.87-4.04-5.88c-0.33-0.47-0.66-0.95-0.99-1.42
				c-0.02-0.03-0.04-0.07-0.07-0.1c-1.07-1.53-2.16-3.09-3.28-4.66c-0.37-0.53-0.75-1.06-1.13-1.58c-0.23-0.33-0.46-0.66-0.7-0.99
				c-0.01,0-0.01,0-0.01-0.01c-0.14-0.2-0.29-0.4-0.43-0.6c-0.73-1.01-1.46-2.03-2.21-3.07c-0.14-0.19-0.26-0.36-0.4-0.54
				c-0.57-0.79-1.15-1.57-1.74-2.38c-1.77-2.41-3.6-4.85-5.46-7.33c-0.44-0.57-0.87-1.14-1.31-1.72c-1.58-2.08-3.2-4.17-4.85-6.29
				c-0.82-1.06-1.66-2.11-2.51-3.18c-0.85-1.07-1.7-2.14-2.56-3.21c-1.73-2.16-3.49-4.31-5.28-6.49c-1.79-2.18-3.62-4.35-5.49-6.54
				c-0.92-1.1-1.87-2.2-2.81-3.3c-1.07-1.23-2.14-2.46-3.23-3.71c-0.85-0.97-1.69-1.92-2.55-2.88c-2.71-3.03-5.47-6.08-8.3-9.1
				c-0.42-0.45-0.84-0.9-1.26-1.35c-0.42-0.45-0.85-0.9-1.28-1.35c-0.78-0.81-1.55-1.64-2.33-2.44c-1.75-1.83-3.52-3.65-5.31-5.45
				c-1.07-1.09-2.16-2.17-3.24-3.24c-0.93-0.92-1.87-1.85-2.81-2.77c-0.96-0.92-1.91-1.85-2.88-2.77c-0.51-0.48-1.02-0.97-1.53-1.45
				c-2.03-1.94-4.09-3.84-6.17-5.73c-1.14-1.04-2.3-2.08-3.45-3.11c-1.03-0.92-2.07-1.84-3.11-2.74c-0.13-0.11-0.25-0.22-0.38-0.33
				c-1.08-0.95-2.17-1.88-3.27-2.81c-0.29-0.24-0.58-0.49-0.88-0.74c-0.82-0.7-1.66-1.41-2.51-2.1c-1.08-0.9-2.17-1.79-3.25-2.66
				c-0.67-0.55-1.34-1.09-2.01-1.62c-1.99-1.61-4.01-3.18-6.04-4.72l-1.62-1.22c-0.66-0.51-1.33-1-2-1.5
				c-2.27-1.68-4.56-3.33-6.87-4.94c-0.3-0.21-0.58-0.42-0.88-0.62c-1.09-0.76-2.18-1.51-3.28-2.24c-1.28-0.87-2.55-1.72-3.84-2.54
				c-1.21-0.79-2.43-1.57-3.65-2.34c-0.09-0.07-0.19-0.12-0.27-0.18c-0.75-0.47-1.5-0.93-2.25-1.4c-2.3-1.42-4.61-2.79-6.95-4.12
				c-1.09-0.63-2.18-1.23-3.27-1.84c-1.1-0.6-2.21-1.21-3.32-1.79c-0.1-0.07-0.21-0.12-0.32-0.18c-1.09-0.58-2.19-1.14-3.29-1.7
				c-1.15-0.59-2.32-1.18-3.49-1.75c-2.34-1.14-4.7-2.23-7.06-3.29c-0.84-0.37-1.68-0.75-2.53-1.1c-1.23-0.54-2.47-1.06-3.72-1.54
				c-0.89-0.36-1.79-0.71-2.68-1.07c-1.4-0.55-2.83-1.07-4.24-1.58c-0.38-0.14-0.78-0.29-1.18-0.43v45.55
				c64.46,22.78,119.89,88.11,156.01,135.53c28.02,36.78,44.43,66.44,44.43,66.44s1.61-0.54,34.43-12.15l0.12,0.22
				c7.98,14.59,18.73,22.64,30.24,22.64c17.73,0,32.77-17.86,39.26-46.6c0.07-0.31,0.14-0.62,0.21-0.93
				c6.67-2.36,13.79-4.88,21.35-7.55l0.12,0.22c8.03,14.28,18.07,21.84,29.04,21.84c17.38,0,32.32-17.36,38.97-45.33
				c0.08-0.32,0.15-0.64,0.22-0.96c4.81-1.69,9.73-3.45,14.78-5.23l0.12,0.22c7.94,14.5,19.14,22.83,30.74,22.83
				c19.22,0,35.18-21.02,40.63-53.56c1.34-7.86,2.02-16.2,2.02-24.76C746.43,444.07,745.33,433.54,743.13,423.8z M489.94,486.09
				l0.03-0.04c0,0.01,0,0.01,0.02,0.02L489.94,486.09z M545.98,555.34c-4.6,12.37-11.2,20.29-17.02,20.29
				c-3.87,0-8.28-3.63-12.12-9.98C525.17,562.7,534.81,559.29,545.98,555.34z M566.6,540.87c-0.38,2.29-0.84,4.57-1.35,6.8
				c-0.07,0.31-0.14,0.63-0.22,0.93c-6.26,26.73-20.02,43.3-36.07,43.3c-9.95,0-19.39-6.92-26.7-19.51
				c3.76-1.32,7.91-2.78,12.46-4.4c4.35,6.89,9.39,10.68,14.24,10.68c7.52,0,15.11-8.77,20.3-23.48c0.13-0.38,0.26-0.77,0.38-1.15
				c0.49-1.43,0.95-2.89,1.36-4.34c2.84-9.93,4.33-21.38,4.33-33.09c0-5.34-0.3-10.57-0.89-15.55c-0.01-0.11-0.02-0.23-0.04-0.34
				c0-0.01,0-0.01,0-0.02c-0.36-2.99-0.81-5.85-1.33-8.48c0-0.04-0.01-0.09-0.02-0.13c-4.32-22.09-14.23-37.52-24.09-37.52
				c-8.32,0-15.86,8.42-20.64,23.07c-0.15,0.46-0.3,0.92-0.46,1.46l-1.64,6.45c-1.22,1.35-2.94,2.41-4.88,3
				c-4.22,1.31-8.29,0.18-9.73-2.6l3.52-9.81c6.54-22.12,18.87-34.81,33.83-34.81c16.32,0,30.26,17.1,36.4,44.61
				c0.13,0.59,0.25,1.19,0.37,1.77c0.58,2.82,1.04,5.5,1.41,8.17c0.01,0.1,0.03,0.2,0.04,0.3v0.01c0.91,6.55,1.39,13.42,1.39,20.41
				C568.57,524.97,567.91,533.14,566.6,540.87z M589.08,488.45c-0.13,0.04-0.26,0.09-0.4,0.13c-0.59,0.22-1.18,0.43-1.76,0.63
				c-0.47,0.18-0.95,0.34-1.41,0.49c-0.12,0.04-0.24,0.09-0.36,0.13c-0.12,0.04-0.24,0.09-0.36,0.13c-0.59,0.21-1.18,0.42-1.76,0.62
				c-0.57,0.21-1.15,0.42-1.73,0.62c-0.92,0.33-1.84,0.65-2.74,0.97c-0.64,0.23-1.26,0.45-1.9,0.67c-0.04,0.02-0.09,0.04-0.14,0.05
				c-1.34,0.48-2.67,0.95-3.98,1.42c-0.81,0.29-1.63,0.57-2.43,0.86c0-0.01,0-0.01,0-0.02c-0.38-2.75-0.87-5.52-1.5-8.43l9.15-3.25
				l62.46-22.13l0.12-0.04c0.51,2.74,0.9,5.49,1.19,8.23c0.01,0.12,0.02,0.23,0.03,0.35v0.01c-0.9,0.32-1.79,0.64-2.67,0.95
				c-1.62,0.57-3.22,1.14-4.82,1.7c-1.35,0.47-2.68,0.95-4.01,1.42c-3.63,1.29-7.19,2.55-10.67,3.78c-1.67,0.58-3.32,1.18-4.95,1.75
				c-0.45,0.16-0.9,0.32-1.34,0.47c-0.19,0.07-0.37,0.13-0.56,0.2c-0.81,0.3-1.63,0.58-2.43,0.86c-0.18,0.07-0.34,0.13-0.52,0.19
				c-0.8,0.29-1.59,0.57-2.39,0.85c-2.38,0.84-4.71,1.66-6.99,2.47c-1.53,0.54-3.03,1.08-4.53,1.61c-0.75,0.26-1.5,0.53-2.23,0.79
				C591.98,487.43,590.52,487.95,589.08,488.45z M635.43,523.67c-4.59,11.71-10.85,18.94-16.48,18.94c-3.91,0-7.2-2.75-10.98-9.21
				C616.59,530.36,625.73,527.1,635.43,523.67z M656.57,507.84c-0.46,2.76-1,5.46-1.62,8.04c-0.08,0.32-0.15,0.64-0.24,0.96
				c-6.4,25.96-20.06,42.04-35.77,42.04c-9.56,0-18.13-6.3-25.49-18.73c4-1.41,8.13-2.87,12.38-4.39c4.2,6.92,8.17,9.89,13.11,9.89
				c7.22,0,14.62-8.27,19.79-22.11c0.14-0.4,0.3-0.79,0.43-1.19c0.66-1.83,1.26-3.73,1.81-5.66c2.84-9.93,4.34-21.38,4.34-33.1
				c0-4.96-0.26-9.81-0.77-14.4c-0.01-0.12-0.02-0.23-0.04-0.35c0,0,0,0,0-0.01c-0.31-2.84-0.73-5.71-1.26-8.55
				c-0.07-0.4-0.14-0.79-0.22-1.19c-4.32-22.09-14.23-37.52-24.08-37.52c-7.99,0-16.49,10.46-21.65,26.65l-0.07,0.22
				c-0.05,0.14-0.1,0.3-0.14,0.45l-0.87,3.24c-1.18,1.85-3.24,3.34-5.72,4.1c-3.21,0.99-6.54,0.54-8.58-1.1
				c0.07-0.36,0.15-0.74,0.24-1.12c0.76-3.72,1.76-6.93,2.65-9.59c0.15-0.52,0.33-1.02,0.49-1.53l0.21-0.62
				c3.84-11.48,9.25-20.46,15.59-26.29c5.4-4.97,11.48-7.65,17.84-7.65c1.47,0,2.92,0.14,4.35,0.42h0.01
				c14.42,2.76,26.45,19.15,32.02,44.19c0.21,0.93,0.42,1.88,0.6,2.84c0.53,2.64,0.97,5.38,1.33,8.19c0.01,0.1,0.02,0.21,0.04,0.31
				v0.01c0.81,6.17,1.23,12.66,1.23,19.3C658.54,491.95,657.88,500.11,656.57,507.84z M670.46,459.63c-1.42,0.49-2.84,1-4.23,1.5
				c-1.4,0.49-2.78,0.99-4.17,1.47c-0.6,0.22-1.22,0.43-1.83,0.65c0-0.01,0-0.01,0-0.01c-0.38-2.91-0.86-5.76-1.42-8.49
				c16.68-5.88,34.76-12.33,54.32-19.24l7.42-2.63l4.32-1.53l0.04-0.01c0.53,2.71,0.97,5.46,1.29,8.17
				c0.01,0.11,0.02,0.22,0.03,0.33v0.01c-3.47,1.23-6.88,2.44-10.25,3.64c-2.6,0.92-5.16,1.83-7.69,2.73h-0.01
				c-2.54,0.91-5.05,1.79-7.53,2.67c-2.49,0.89-4.94,1.76-7.38,2.62c-3.05,1.09-6.05,2.14-9.01,3.2c-0.59,0.2-1.19,0.42-1.77,0.63
				c-1.19,0.41-2.35,0.82-3.52,1.24C676.17,457.61,673.3,458.62,670.46,459.63z M720.99,493.36c-4.61,12.67-11.29,20.77-17.21,20.77
				c-3.98,0-8.36-3.65-12.3-10.3C700.91,500.47,710.74,496.97,720.99,493.36z M741.42,479.37c-0.15,0.92-0.32,1.85-0.49,2.75
				c-0.29,1.53-0.6,3.03-0.93,4.5c-6.16,26.84-19.97,43.79-36.21,43.79c-10.05,0-19.89-7.16-27.2-19.69
				c4.18-1.48,8.43-2.99,12.78-4.53c4.42,7.1,9.51,11,14.43,11c7.63,0,15.28-8.96,20.49-23.97c0.13-0.37,0.26-0.76,0.38-1.14
				c0.42-1.24,0.81-2.53,1.19-3.86c2.83-9.95,4.32-21.39,4.32-33.09c0-5.5-0.32-10.86-0.93-15.97c-0.01-0.11-0.02-0.22-0.04-0.33
				c0,0,0,0,0-0.01c-0.33-2.72-0.77-5.48-1.31-8.21c-0.02-0.1-0.04-0.21-0.07-0.31c-0.4-2.05-0.86-4.04-1.35-5.96
				c0-0.01-0.01-0.02-0.01-0.02c-4.3-16.65-11.86-28.44-19.77-30.79v-0.01c-0.96-0.29-1.92-0.43-2.89-0.43
				c-6,0-12.25,5.82-17.15,15.94c-1.53,3.16-3.01,6.91-4.17,10.57l-0.01,0.04c-0.04,0.13-0.09,0.25-0.12,0.37l-0.89,3.1
				c-1.15,1.92-3.25,3.46-5.79,4.23c-3.19,0.99-6.51,0.55-8.57-1.07c0.12-0.58,0.24-1.17,0.36-1.75c0.71-3.29,1.43-6.03,2.32-8.87
				c0.33-1.06,0.67-2.1,1.07-3.19c1.88-5.34,4.1-10.17,6.62-14.35c2.2-3.64,4.57-6.75,7.09-9.32h0.01
				c5.75-5.88,12.27-8.94,19.23-8.94c0.59,0,1.19,0.03,1.79,0.09c0.48,0.03,0.96,0.09,1.43,0.15c0.01,0,0.01,0,0.01,0
				c14.88,2.1,27.5,18.91,33.16,44.38c2.14,9.52,3.22,19.83,3.22,30.65C743.39,463.51,742.74,471.67,741.42,479.37z"/>
		</g>
		<g>
			<path class="st0" d="M325.88,324.47c-6.44,1.48-12.21,2.84-17.38,3.98h-0.03c-0.55,0.12-1.1,0.24-1.64,0.36
				c-1.08,0.24-2.12,0.47-3.14,0.69c-5.15,1.13-9.65,2.09-13.58,2.89c-0.79,0.16-1.55,0.32-2.29,0.46
				c-1.17,0.24-2.27,0.45-3.31,0.66c-0.58,0.11-1.14,0.22-1.69,0.32c-0.09,0.02-0.19,0.04-0.27,0.05c-0.54,0.11-1.06,0.21-1.56,0.3
				c-0.05,0.02-0.11,0.02-0.15,0.03c-0.59,0.11-1.17,0.21-1.73,0.32c-0.04,0.01-0.08,0.02-0.12,0.02c-0.64,0.11-1.24,0.22-1.84,0.33
				c-0.65,0.12-1.26,0.23-1.85,0.33c-0.6,0.1-1.18,0.2-1.72,0.29c-0.3,0.06-0.58,0.1-0.86,0.14c-0.2,0.03-0.38,0.07-0.57,0.09
				c-0.23,0.04-0.45,0.08-0.66,0.1c-0.29,0.05-0.55,0.09-0.81,0.13c-0.9,0.14-1.69,0.25-2.39,0.34c-0.12,0.01-0.24,0.03-0.35,0.04
				c-0.14,0.02-0.29,0.03-0.42,0.05c-0.2,0.02-0.38,0.04-0.57,0.07c-0.4,0.04-0.75,0.09-1.06,0.11c-0.08,0.01-0.15,0.02-0.22,0.02
				c-1.26,0.12-1.77,0.12-1.9,0.11c14.49-4.32,28.26-8.43,41.3-12.29c5.21-1.57,10.35-3.09,15.35-4.57
				C322.15,321.46,323.98,322.99,325.88,324.47z"/>
			<path class="st0" d="M701.98,373.95c-4.87-4.29-109.6-96.46-147.96-109c-5.85,1.61-11.62,3.22-17.22,4.74
				c-5.33,1.45-10.56,2.89-15.68,4.29c0-0.04,0-0.13,0.04-0.18c0.3-1.19,0.59-2.33,0.85-3.52c0.25-1.14,0.46-2.24,0.68-3.39
				c0.21-1.32,0.42-2.63,0.59-3.95c0.08-0.59,0.15-1.2,0.22-1.8c0.05-0.59,0.11-1.2,0.15-1.79h0.04c4.84-1.44,8.73-2.63,12-3.56
				h0.04c0.01,0,0.02-0.01,0.03-0.01c14.93-4.49,14.93-4.49,14.93-4.49S641.91,302.21,701.98,373.95z"/>
		</g>
	</g>
	<path class="st0" d="M489.97,486.04l-0.03,0.04l0.05-0.02C489.97,486.06,489.97,486.06,489.97,486.04z"/>
	<path class="st0" d="M489.99,486.07l-0.05,0.02l0.03-0.04C489.97,486.06,489.97,486.06,489.99,486.07z"/>
</g>
<g id="Chien">
	<g>
		<path class="st0" d="M535.96,257.48c-0.06-0.57-0.11-1.13-0.18-1.7c-0.27-2.43-0.66-4.84-1.13-7.22c-0.86-5.14-3-11.74-5.85-17.96
			c0.8,1.96,1.56,3.95,2.24,5.98l0.01,0.01c0.24,0.7,0.47,1.41,0.69,2.11c0.05,0.15,0.1,0.31,0.15,0.46
			c0.01,0.05,0.03,0.1,0.04,0.15c0.22,0.67,0.42,1.35,0.62,2.03c0,0-0.01,0.01,0,0.02c0.15,0.53,0.3,1.06,0.44,1.58
			c0.02,0.05,0.04,0.13,0.05,0.19v0.04c0.29,1.03,0.55,2.07,0.79,3.11c0.12,0.52,0.24,1.03,0.36,1.56c0.12,0.47,0.23,0.95,0.32,1.42
			c0.02,0.12,0.06,0.24,0.08,0.36c0.1,0.45,0.19,0.91,0.27,1.36c0.32,1.58,0.59,3.18,0.84,4.78c0.02,0.12,0.03,0.23,0.04,0.35
			c0.01,0.03,0.02,0.07,0.02,0.1c0.08,0.52,0.14,1.04,0.21,1.56C535.98,257.69,535.97,257.59,535.96,257.48z"/>
		<path class="st0" d="M536.51,262.87c-0.12-1.66-0.3-3.35-0.51-5v-0.04c-0.01-0.11-0.03-0.23-0.04-0.34
			c0.01,0.11,0.02,0.21,0.03,0.32c-0.07-0.52-0.13-1.04-0.21-1.56c0-0.03-0.01-0.07-0.02-0.1c-0.01-0.12-0.03-0.23-0.06-0.35
			c-0.24-1.61-0.52-3.2-0.82-4.78c-0.09-0.45-0.18-0.91-0.27-1.36c-0.02-0.12-0.05-0.24-0.08-0.36c-0.1-0.47-0.21-0.95-0.32-1.42
			c-0.12-0.53-0.24-1.04-0.36-1.56c-0.25-1.04-0.53-2.07-0.81-3.1v-0.04c0-0.09,0-0.13-0.04-0.18c-0.14-0.54-0.29-1.08-0.43-1.61
			c-0.01-0.01,0-0.02,0-0.02c-0.2-0.68-0.4-1.36-0.62-2.03c-0.01-0.05-0.03-0.1-0.04-0.15c-0.06-0.15-0.1-0.31-0.15-0.46
			c-0.23-0.7-0.46-1.42-0.7-2.12c-0.68-2.03-1.44-4.02-2.24-5.98c-0.09-0.25-0.22-0.42-0.3-0.63c-1.57-3.1-3.47-4.93-5.3-7.6
			l-1.32-0.89c-0.76-0.33-1.48-0.67-2.24-1.06c-9.67-4.62-18.78-10.35-27.14-17.04v0.18c-0.42-0.38-0.85-0.77-1.26-1.19
			c0.42,0.37,0.85,0.71,1.26,1.01c1.91-18.78,0.25-37.52-2.42-56.09c-3-19.67-7.41-39.09-13.05-58.21
			c-3.43-11.45-7.25-22.85-11.74-33.96c-1.91-4.54-4.02-9.16-7.17-13.02c-16.2-17.77-43.2-18.44-65.12-11.95
			c-1.28-0.93-2.54-1.87-3.82-2.76c-1.23-0.89-2.54-1.74-3.82-2.58C362.73,9.96,335.93,1.49,308.83,0.47
			c-9.49-0.34-19.15,0.21-28.57,1.48c-47.06,6.49-90.14,36.63-111.04,79.07c-28.33,12.96-52.29,36.5-47.24,70.21
			c3.31,25.86,4.41,51.76,7.04,77.75c4.2,36.17,9.29,102.43,48.16,118.37l2.03,0.85l2.34-0.04c27.21-1.06,48.62-32.13,64.02-63.55
			c12.67,15.56,29.71,27.56,48.21,35.31c3.6,1.48,7.25,2.85,10.93,4.08c0.13,0.12,0.22,0.3,0.34,0.42c1.1,1.4,2.25,2.72,3.4,4.02
			h0.03c19.3,21.79,48.5,34.6,77.72,32.73c29.81-1.4,57.87-17.85,74.78-42.22c2.94,3.09,6.23,5.85,9.97,8.05
			c9.49,5.73,19.67,6.44,28.91,3.47c13.14-3.85,23.92-14.67,29.63-26.67c5.3-10.68,7.38-22.42,7.29-34.13
			C536.8,267.4,536.73,265.11,536.51,262.87z M440.18,46.51c2.55,1.65,4.71,3.77,7.04,5.76c4.08,3.49,7.81,7.55,9.71,12.68
			c11.28,26.84,19.89,54.99,24.93,83.69c2.72,15.86,4.54,32.19,3.65,48.29c1.83,1.78,3.65,3.56,5.51,5.26
			c-1.69-1.35-3.39-2.79-5.05-4.28c-2.41-2.12-4.74-4.33-7.04-6.62c-3.05-3.09-5.97-6.27-8.77-9.58
			c-8.73-10.44-16.61-21.79-22.76-33.92c0.04-0.89,0.09-1.86,0.16-2.54c3.22-40.62-15.22-80.81-45.4-107.65
			C415.59,37.31,428.95,39.14,440.18,46.51z M523.71,259.35c-0.07,0.59-0.13,1.2-0.2,1.79c-0.07,0.6-0.14,1.21-0.22,1.8
			c-0.18,1.32-0.38,2.63-0.59,3.95c-0.22,1.14-0.43,2.24-0.68,3.39c-0.25,1.19-0.55,2.33-0.85,3.52c-0.04,0.04-0.04,0.13-0.04,0.18
			c-0.04,0.04-0.04,0.12-0.04,0.16c-0.3,1.07-0.59,2.12-0.93,3.14c-0.21,0.67-0.42,1.35-0.64,2.03c-0.34,1.01-0.67,1.99-1.06,2.97
			c-0.64,1.61-1.28,3.18-1.95,4.71c-0.38,0.89-0.81,1.74-1.23,2.58c-0.13,0.25-0.25,0.51-0.38,0.71c-0.38,0.77-0.76,1.53-1.23,2.29
			c-1.78,3.23-3.77,6.23-5.97,8.95c-0.59,0.73-1.19,1.4-1.83,2.08c-0.34,0.34-0.64,0.68-0.98,1.02c-0.98,1.01-1.99,1.95-3.05,2.84
			c-0.3,0.3-0.64,0.55-0.98,0.76c-0.59,0.52-1.23,1.02-1.91,1.44c-0.85,0.59-1.74,1.19-2.67,1.66c-0.8,0.51-1.65,0.93-2.54,1.26
			c-0.09,0.09-0.16,0.13-0.25,0.13c-0.85,0.38-1.69,0.73-2.58,1.02c-6.4,2.54-13.87-1.7-19.46-7.42c-0.38-0.38-0.76-0.77-1.1-1.19
			c-1.11-1.14-2.08-2.38-2.97-3.61c1.01-1.99,1.99-4.02,2.84-6.06c0.38-0.85,0.77-1.74,1.1-2.63c0.86-1.96,1.57-3.99,2.3-6.03
			c0.55-1.74,1.1-3.47,1.61-5.21c4.75-2.58,30.06-17.52,23.44-42.91c0-0.04,0-0.04,0-0.09c-0.64-2.45-3.56-3.56-5.76-2.2
			c-4.84,2.92-11.36,5.63-18.4,8.01c-8.82,2.97-18.53,5.43-26.93,7.33c-7.5,1.7-13.99,2.92-17.89,3.61
			c-2.24,0.43-3.64,2.63-3.05,4.84c3.6,13.35,12.16,19.42,21.11,21.96c0.76,0.21,1.56,0.43,2.38,0.55c-0.13,0.51-0.3,1.07-0.47,1.57
			c-1.14,3.39-2.5,6.74-4.07,10.01c-0.09,0.12-0.13,0.3-0.21,0.42c-0.64,1.36-1.36,2.72-2.08,4.04c-0.68,1.26-1.44,2.54-2.21,3.77
			c-1.53,2.5-3.18,4.87-4.92,7.16c-0.59,0.77-1.19,1.48-1.78,2.21c-0.64,0.8-1.31,1.61-2.03,2.42c-0.31,0.36-0.63,0.73-0.95,1.08
			c-0.35,0.37-0.7,0.74-1.04,1.08c-0.09,0.18-0.21,0.3-0.38,0.43c-0.64,0.68-1.31,1.35-1.99,2.03c-2.24,2.2-4.62,4.28-7.13,6.23
			c-6.74,5.3-14.28,9.32-22.26,12.04c-0.73,0.25-1.4,0.46-2.08,0.67c-0.59,0.22-1.19,0.38-1.78,0.52c-2.63,0.76-5.26,1.35-7.93,1.81
			c-0.3,0.04-0.64,0.09-0.93,0.18c-8.91,1.4-18.02,1.28-26.92-0.51c-1.22-0.24-2.44-0.52-3.65-0.82c-0.37-0.1-0.76-0.2-1.13-0.3
			c-0.82-0.22-1.65-0.45-2.47-0.7h-0.01c-0.19-0.06-0.36-0.12-0.54-0.18c-0.09-0.02-0.19-0.05-0.27-0.1c-0.02,0-0.05-0.01-0.08-0.02
			c-0.02-0.01-0.02-0.01-0.03-0.01c-0.22-0.08-0.45-0.14-0.67-0.23c-0.52-0.16-1.02-0.34-1.54-0.53c-0.74-0.26-1.47-0.55-2.21-0.84
			c-0.59-0.23-1.18-0.47-1.76-0.73c-0.73-0.3-1.48-0.64-2.21-0.98c-0.42-0.16-0.85-0.38-1.26-0.59c-0.81-0.34-1.57-0.71-2.34-1.14
			c-1.06-0.51-2.07-1.06-3.05-1.65c-0.77-0.43-1.48-0.86-2.21-1.32c-1.26-0.71-2.45-1.53-3.64-2.33c-1.19-0.8-2.29-1.61-3.4-2.5
			c-0.21-0.13-0.42-0.3-0.59-0.43c-1.9-1.48-3.73-3.01-5.46-4.62c-17.18-15.99-27.18-38.79-28.7-62.33l-8.15-6.32l0.25,5.68
			c0.3,10.9,2.21,21.75,5.77,32.14c0.85,5.08,5.89,16.23,9.92,24.59c-19.51-7.76-37.52-20.35-50.11-37.06
			c7.08-15.43,12.67-30.36,16.75-41.12c5.17-14.28,9.83-28.53,13.99-43.25l0.13-0.55l0.03-0.3c0.64-5.46,0.18-10.77-0.46-16.15
			c-1.65-12.38-5.46-24.33-10.35-35.78l-3.01-6.7c-3.18-6.44-12.62-2.46-10.22,4.28l0.04,0.21l2.51,6.44
			c5,14.29,9.03,29.65,7.5,44.86c-3.31,9.71-10.26,28.45-15.65,40.92c-3.3,7.63-7.59,17.33-12.63,27.68
			c-1.44,2.97-2.97,6.07-4.57,9.12c-12.47,24.17-28.58,49.18-45.88,57.07c-1.4,0.59-2.72,0.93-3.98,1.1
			c-24.6-12.5-31.89-72.33-35.75-97.56c-3.22-23.27-5.47-46.97-8.86-70.29c-0.12-0.77-0.92-5.98-1.06-6.49
			c-1.4-6.74-1.4-13.78,0.46-20.31c3.49-11.92,12.22-21.63,23.11-29.34c6.15-4.33,13.01-8.06,20.01-11.19
			c10.56-4.71,21.45-8.15,30.9-10.44c2.97-0.59,4.97-3.43,4.41-6.44c-0.55-3.01-3.43-5-6.44-4.5c-3.6,0.68-6.86,1.44-10.34,2.3
			c-2.92,0.76-5.85,1.61-8.79,2.5c11.96-17.09,28.71-31.92,50.33-42.65C293.83,4.16,359.92,14,401.31,55.33
			c23.83,23.32,38.16,56.34,37.94,89.75l-0.03,2.8l1.06,3.65c0.25,0.59,0.46,1.19,0.73,1.78c9.24,21.41,23.7,40.36,41.63,55.23
			c10.77,8.86,23.1,15.94,36.29,20.53c2.21,5.04,3.69,10.38,4.45,15.86C524,249.35,524.14,254.22,523.71,259.35z"/>
		<path class="st0" d="M492.5,203.38v0.18c-0.42-0.38-0.85-0.77-1.26-1.19C491.65,202.74,492.08,203.09,492.5,203.38z"/>
		<path class="st0" d="M443.28,298.74c-0.68,1.26-1.44,2.54-2.21,3.77C441.84,301.28,442.56,300,443.28,298.74z"/>
		<path class="st0" d="M492.5,203.38v0.18c-0.42-0.38-0.85-0.77-1.26-1.19C491.65,202.74,492.08,203.09,492.5,203.38z"/>
		<path class="st0" d="M535.99,257.8c-0.07-0.52-0.13-1.04-0.21-1.56c0.07,0.41,0.12,0.82,0.18,1.24
			C535.97,257.59,535.98,257.69,535.99,257.8z"/>
		<path class="st0" d="M323.64,175.06c-12.55,4.08-27.51-7.37-33.45-25.6c-5.94-18.28-0.64-36.34,11.91-40.45
			c12.51-4.07,27.48,7.42,33.42,25.65C341.44,152.89,336.14,170.99,323.64,175.06z"/>
		<path class="st0" d="M412.37,152.5c-11.06,1.69-22.09-10.64-24.63-27.47c-2.55-16.83,4.32-31.84,15.38-33.54
			c11.07-1.65,22.09,10.64,24.64,27.47C430.31,135.85,423.43,150.85,412.37,152.5z"/>
		<path class="st0" d="M441.07,302.51c0.77-1.23,1.53-2.51,2.21-3.77C442.56,300,441.84,301.28,441.07,302.51z"/>
	</g>
</g>
</svg>
