<?xml version="1.0" encoding="utf-8"?>
<!-- Generator: Adobe Illustrator 26.3.1, SVG Export Plug-In . SVG Version: 6.00 Build 0)  -->
<svg version="1.1" id="Capa_1" xmlns="http://www.w3.org/2000/svg" xmlns:xlink="http://www.w3.org/1999/xlink" x="0px" y="0px"
	 viewBox="0 0 512 512" style="enable-background:new 0 0 512 512;" xml:space="preserve">
<g>
	<path d="M341.3,64h97.9c4.8,0,8.7,3.9,8.7,8.7v366.5c0,4.8-3.9,8.7-8.7,8.7h-97.9c-17.7,0-32,14.3-32,32s14.3,32,32,32h97.9
		c40.1,0,72.7-32.6,72.7-72.7V72.7c0-40.1-32.6-72.7-72.7-72.7h-97.9c-17.7,0-32,14.3-32,32S323.6,64,341.3,64z"/>
	<path d="M28.1,323.9l82.8,82.8c12.5,12.5,32.8,12.5,45.3,0s12.5-32.8,0-45.3l-72.8-72.8l289.9-0.6c17.7,0,32-14.3,32-32
		s-14.3-32-32-32l0,0l-291.1,0.5l74-74c12-12.9,11.3-33.2-1.6-45.2c-12.3-11.4-31.3-11.4-43.6,0l-82.8,82.8
		C-9.3,225.6-9.3,286.4,28.1,323.9L28.1,323.9L28.1,323.9z"/>
</g>
</svg>
