<?xml version="1.0" encoding="utf-8"?>
<!-- Generator: Adobe Illustrator 26.3.1, SVG Export Plug-In . SVG Version: 6.00 Build 0)  -->
<svg version="1.1" id="Layer_1" xmlns="http://www.w3.org/2000/svg" xmlns:xlink="http://www.w3.org/1999/xlink" x="0px" y="0px"
	 viewBox="0 0 1587 1400" style="enable-background:new 0 0 1587 1400;" xml:space="preserve">
<g>
	<path d="M1134.96,1379.75c-45.21-9.31-90.4-18.73-135.64-27.91c-53.62-10.88-106.9-24.46-161.03-31.65
		c-80.68-10.71-158.07,10.05-235.32,31.17c-39.56,10.81-80.43,19.33-121.22,22.73c-116.14,9.67-213.01-63.43-238.19-177.01
		c-18.18-82.03,2.22-153.2,63.52-211.43C396,901.19,484.98,816.8,574.7,733.2c124.88-116.38,313.36-116.11,438.22,0.53
		c89.62,83.71,178.77,167.92,267.43,252.65c66.02,63.09,84.59,140.44,58.18,226.34c-26.15,85.04-82.82,140.81-172.33,159.23
		c-9.92,2.04-20.16,2.51-30.25,3.71C1135.61,1377.02,1135.29,1378.39,1134.96,1379.75z"/>
	<path d="M743.23,271.44c-1.68,73.56-18.99,140.21-65.29,196.9c-69.21,84.75-175.32,84.63-243.86-0.82
		c-51.68-64.43-68.9-139.6-63.37-220.57c3.38-49.4,14.81-96.98,39.71-140.4c25.36-44.24,60.13-78.45,111.15-90.27
		c66.8-15.48,120.05,9.87,161.14,61.7C727.88,134.97,740.71,202.65,743.23,271.44z"/>
	<path d="M1218,270.07c-2.48,74.82-19.26,140.52-64.26,196.61c-69.57,86.71-176.79,86.93-245.99-0.11
		c-53.47-67.25-69.31-145.46-61.79-229.27c4.22-47.03,15.99-92.21,40.22-133.29c25.28-42.86,59.56-75.86,109.24-87.65
		c63.81-15.14,115.71,7.86,157.08,56c38.11,44.35,54.4,98.04,61.7,154.88C1216.2,242.89,1217.01,258.68,1218,270.07z"/>
	<path d="M329.33,635.58c-0.91,36.5-6.13,71.99-20.96,105.55c-40.38,91.37-138.37,110.95-210.7,41.75
		C48.8,736.13,24.75,676.6,12.79,611.57c-10.27-55.83-9.6-111.17,13.14-164.42c37.49-87.81,130.02-110.42,202.6-48.69
		c58.39,49.66,86.07,115.75,96.52,190.01C327.24,604.07,327.94,619.88,329.33,635.58z"/>
	<path d="M1258.26,630.79c1.6-73.4,21.88-146.85,75.54-207.6c15.73-17.81,35.43-33.73,56.28-45.12
		c53.41-29.18,112.55-14.57,149.46,33.88c26.23,34.43,37.9,74.38,40.44,116.61c4.93,82.03-14.7,158.03-63.88,224.6
		c-13.15,17.79-30.35,33.95-48.77,46.27c-66.17,44.27-143.58,24.38-182.34-45.09C1264.63,717.84,1258.15,678.14,1258.26,630.79z"/>
</g>
</svg>
