<?xml version="1.0" encoding="utf-8"?>
<!-- Generator: Adobe Illustrator 26.3.1, SVG Export Plug-In . SVG Version: 6.00 Build 0)  -->
<svg version="1.1" id="Layer_1" xmlns="http://www.w3.org/2000/svg" xmlns:xlink="http://www.w3.org/1999/xlink" x="0px" y="0px"
	 viewBox="0 0 1587 1400" style="enable-background:new 0 0 1587 1400;" xml:space="preserve">
<g>
	<path d="M999.3,1351.8c-53.6-10.9-106.9-24.5-161-31.7c-80.7-10.7-158.1,10.1-235.3,31.2c-39.6,10.8-80.4,19.3-121.2,22.7
		c-116.1,9.7-213-63.4-238.2-177c-18.2-82,2.2-153.2,63.5-211.4C396,901.2,485,816.8,574.7,733.2c124.9-116.4,313.4-116.1,438.2,0.5
		c89.6,83.7,178.8,167.9,267.4,252.6c66,63.1,84.6,140.4,58.2,226.3c-26.2,85-82.8,140.8-172.3,159.2c-9.9,2-20.2,2.5-30.2,3.7
		C1105.7,1379.4,999.3,1351.8,999.3,1351.8z"/>
	<path d="M743.2,271.4c-1.7,73.6-19,140.2-65.3,196.9c-69.2,84.7-175.3,84.6-243.9-0.8c-51.7-64.4-68.9-139.6-63.4-220.6
		c3.4-49.4,14.8-97,39.7-140.4c25.4-44.2,60.1-78.4,111.1-90.3c66.8-15.5,120,9.9,161.1,61.7C727.9,135,740.7,202.6,743.2,271.4z"/>
	<path d="M1218,270.1c-2.5,74.8-19.3,140.5-64.3,196.6c-69.6,86.7-176.8,86.9-246-0.1c-53.5-67.2-69.3-145.5-61.8-229.3
		c4.2-47,16-92.2,40.2-133.3c25.3-42.9,59.6-75.9,109.2-87.7c63.8-15.1,115.7,7.9,157.1,56c38.1,44.3,54.4,98,61.7,154.9
		C1216.2,242.9,1217,258.7,1218,270.1z"/>
	<path d="M329.3,635.6c-0.9,36.5-6.1,72-21,105.5C268,832.5,170,852.1,97.7,782.9c-48.9-46.8-72.9-106.3-84.9-171.3
		C2.5,555.7,3.2,500.4,25.9,447.2c37.5-87.8,130-110.4,202.6-48.7c58.4,49.7,86.1,115.8,96.5,190
		C327.2,604.1,327.9,619.9,329.3,635.6z"/>
	<path d="M1258.3,630.8c1.6-73.4,21.9-146.9,75.5-207.6c15.7-17.8,35.4-33.7,56.3-45.1c53.4-29.2,112.6-14.6,149.5,33.9
		c26.2,34.4,37.9,74.4,40.4,116.6c4.9,82-14.7,158-63.9,224.6c-13.2,17.8-30.3,34-48.8,46.3c-66.2,44.3-143.6,24.4-182.3-45.1
		C1264.6,717.8,1258.2,678.1,1258.3,630.8z"/>
</g>
</svg>
