<svg width="20" height="20" viewBox="0 0 20 20" fill="none" xmlns="http://www.w3.org/2000/svg">
<path d="M17.5034 13.3334L17.5034 17.16C17.503 17.3481 17.3506 17.5004 17.1625 17.5009L2.84138 17.5009C2.65329 17.5004 2.50092 17.3481 2.50049 17.16L2.50049 13.3334C2.50049 12.6429 1.94073 12.0832 1.25024 12.0832C0.559757 12.0832 -3.21647e-07 12.6429 -2.91465e-07 13.3334L-1.242e-07 17.16C0.00183624 18.7285 1.2729 19.9995 2.84138 20.0013L17.1625 20.0013C18.731 19.9995 20.0021 18.7285 20.0039 17.16L20.0039 13.3334C20.0039 12.6429 19.4442 12.0832 18.7537 12.0832C18.0632 12.0832 17.5034 12.6429 17.5034 13.3334Z" fill="#0A6375"/>
<path d="M7.34914 1.0961L4.11601 4.33174C3.62783 4.82015 3.62802 5.61183 4.11644 6.10001C4.60485 6.58819 5.39653 6.588 5.88471 6.09958L8.72777 3.25571L8.75109 14.5837C8.75109 15.2742 9.31085 15.834 10.0013 15.834C10.6918 15.834 11.2516 15.2742 11.2516 14.5837L11.2308 3.20984L14.1205 6.09958C14.6259 6.57006 15.417 6.54174 15.8875 6.03637C16.3346 5.556 16.3343 4.81167 15.8867 4.33174L12.6535 1.0986C11.1888 -0.366173 8.81396 -0.366173 7.34922 1.09857L7.34918 1.0986L7.34914 1.0961Z" fill="#0A6375"/>
</svg>
