<svg id="Layer_1" data-name="Layer 1" xmlns="http://www.w3.org/2000/svg" viewBox="0 0 838.27 159.03"><defs><style>.cls-1{fill:#0d343d;}</style></defs><g id="PawPlanner"><path class="cls-1" d="M230.77,67.13a20.48,20.48,0,0,1-8.6,8.1c-3.8,2.1-8.6,3.1-14.3,3.1h-10.5v25.1h-17V33.53h27.5a31.32,31.32,0,0,1,14.1,2.9,20.48,20.48,0,0,1,8.7,8,23.49,23.49,0,0,1,2.9,11.6A21.81,21.81,0,0,1,230.77,67.13Zm-16.9-4.6a8.53,8.53,0,0,0,2.4-6.5,8.68,8.68,0,0,0-2.4-6.5c-1.6-1.5-4-2.3-7.3-2.3h-9.2v17.5h9.2C209.87,64.83,212.27,64,213.87,62.53Z"/><path class="cls-1" d="M248.27,60.53a24.31,24.31,0,0,1,8.8-9.9,23.22,23.22,0,0,1,12.4-3.5,21.46,21.46,0,0,1,10.3,2.4,18,18,0,0,1,6.8,6.3v-7.9h17v55.5h-17v-7.9a19.09,19.09,0,0,1-6.9,6.3,21.46,21.46,0,0,1-10.3,2.4,22.88,22.88,0,0,1-12.3-3.5,25.27,25.27,0,0,1-8.8-10,32.91,32.91,0,0,1-3.2-15.1A31.42,31.42,0,0,1,248.27,60.53Zm34.8,5.1a11.36,11.36,0,0,0-8.6-3.7,11.63,11.63,0,0,0-8.6,3.6c-2.4,2.4-3.5,5.8-3.5,10s1.2,7.6,3.5,10.1a11.84,11.84,0,0,0,17.2,0c2.4-2.5,3.5-5.8,3.5-10S285.37,68,283.07,65.63Z"/><path class="cls-1" d="M401.47,47.93l-15,55.5h-18.8l-8.8-36-9,36h-18.7l-15.1-55.5h17l7.9,39.7,9.3-39.7h18l9.4,39.5,7.8-39.5Z"/><path class="cls-1" d="M464.37,67.13a20.48,20.48,0,0,1-8.6,8.1c-3.8,2.1-8.6,3.1-14.3,3.1H431v25.1H414V33.53h27.5a31.32,31.32,0,0,1,14.1,2.9,20.48,20.48,0,0,1,8.7,8,23.49,23.49,0,0,1,2.9,11.6A22.86,22.86,0,0,1,464.37,67.13Zm-16.9-4.6a8.53,8.53,0,0,0,2.4-6.5,8.68,8.68,0,0,0-2.4-6.5c-1.6-1.5-4-2.3-7.3-2.3H431v17.5h9.2C443.47,64.83,445.87,64,447.47,62.53Z"/><path class="cls-1" d="M499,29.83v73.6H482V29.83Z"/><path class="cls-1" d="M517.07,60.53a24.31,24.31,0,0,1,8.8-9.9,23.22,23.22,0,0,1,12.4-3.5,21.46,21.46,0,0,1,10.3,2.4,18,18,0,0,1,6.8,6.3v-7.9h17v55.5h-17v-7.9a19.09,19.09,0,0,1-6.9,6.3,21.46,21.46,0,0,1-10.3,2.4,22.88,22.88,0,0,1-12.3-3.5,25.27,25.27,0,0,1-8.8-10,32.91,32.91,0,0,1-3.2-15.1A33.94,33.94,0,0,1,517.07,60.53Zm34.8,5.1a11.36,11.36,0,0,0-8.6-3.7,11.63,11.63,0,0,0-8.6,3.6c-2.4,2.4-3.5,5.8-3.5,10s1.2,7.6,3.5,10.1a11.84,11.84,0,0,0,17.2,0c2.4-2.5,3.5-5.8,3.5-10S554.27,68,551.87,65.63Z"/><path class="cls-1" d="M640.07,53.63c3.9,4.2,5.8,10,5.8,17.4v32.4H629V73.33c0-3.7-1-6.6-2.9-8.7a10,10,0,0,0-7.8-3.1,10.25,10.25,0,0,0-7.8,3.1c-1.9,2.1-2.9,4.9-2.9,8.7v30.1h-17V47.93h17v7.4a16.74,16.74,0,0,1,7-5.8,22.36,22.36,0,0,1,9.8-2.1C631.07,47.33,636.27,49.43,640.07,53.63Z"/><path class="cls-1" d="M713.07,53.63c3.9,4.2,5.8,10,5.8,17.4v32.4H702V73.33c0-3.7-1-6.6-2.9-8.7a10,10,0,0,0-7.8-3.1,10.25,10.25,0,0,0-7.8,3.1c-1.9,2.1-2.9,4.9-2.9,8.7v30.1h-17V47.93h17v7.4a16.74,16.74,0,0,1,7-5.8,22.36,22.36,0,0,1,9.8-2.1C704.07,47.33,709.17,49.43,713.07,53.63Z"/><path class="cls-1" d="M788.67,79.73h-38.5c.3,3.4,1.4,6.1,3.3,7.9a10.39,10.39,0,0,0,7.2,2.7c4.2,0,7.2-1.8,8.8-5.4h18.1a24.7,24.7,0,0,1-5,9.8,26.17,26.17,0,0,1-9.1,6.9,28.32,28.32,0,0,1-12.2,2.5,29.91,29.91,0,0,1-14.5-3.5,24.21,24.21,0,0,1-9.9-9.9,30.39,30.39,0,0,1-3.6-15.1,31.47,31.47,0,0,1,3.5-15.1,24.82,24.82,0,0,1,9.9-9.9,30,30,0,0,1,14.6-3.5,29.08,29.08,0,0,1,14.3,3.4,25.12,25.12,0,0,1,9.8,9.6,28.7,28.7,0,0,1,3.5,14.6A28.27,28.27,0,0,1,788.67,79.73Zm-17.1-9.5a8.93,8.93,0,0,0-3-7,11.21,11.21,0,0,0-7.5-2.6,10.36,10.36,0,0,0-7.2,2.5,10.62,10.62,0,0,0-3.6,7.1Z"/><path class="cls-1" d="M828.37,49.93a18.8,18.8,0,0,1,9.9-2.6v18h-4.7c-4.2,0-7.4.9-9.5,2.7s-3.2,5-3.2,9.6v25.8h-17V47.93h17v9.2A24.47,24.47,0,0,1,828.37,49.93Z"/></g><g id="Chien"><path class="cls-1" d="M80.07,124.73h0c.1.2.2.3.3.5A.85.85,0,0,0,80.07,124.73Zm3,4c0,.1.1.1.1.2h0C83.17,128.83,83.07,128.83,83.07,128.73Zm1.5,2.2h0c.1.1.2.3.3.4A1.38,1.38,0,0,0,84.57,130.93Zm2.1,3c-.1-.1-.1-.2-.2-.3,0,.1.1.2.2.3Zm5.3,8.5Zm23.5-8.2c-.4.1-.8.3-1.2.4a5.64,5.64,0,0,0,1.2-.4Zm10-3.5h.1a1.45,1.45,0,0,1,.7-.2A1.88,1.88,0,0,0,125.47,130.73Zm34.2-12.1c-.7.2-1.4.5-2.1.7.7-.2,1.4-.5,2.1-.7.9-.3,1.8-.6,2.8-1C161.47,117.93,160.57,118.33,159.67,118.63Zm-8.5,3,2.4-.9Zm-6.5,2.3h0c.2-.1.3-.1.5-.2C145,123.83,144.87,123.83,144.67,123.93Z"/><path class="cls-1" d="M151.17,121.63l2.4-.9Zm0,0,2.4-.9Zm-113-31.7h0c.1,0,.2.1.3.1.4.1.8.3,1.1.4A12.13,12.13,0,0,1,38.17,89.93Zm3.9,1.5c.6.3,1.3.6,1.9.9C43.27,92,42.67,91.73,42.07,91.43Zm11,6.3-.9-.6.9.6c.1.1.2.1.2.2Zm98.1,23.9,2.4-.9Z"/><path class="cls-1" d="M39.67,90.53c-.4-.1-.8-.3-1.1-.4-.1,0-.2-.1-.3-.1h0A12.13,12.13,0,0,1,39.67,90.53Z"/><path class="cls-1" d="M44,92.33c-.6-.3-1.3-.6-1.9-.9C42.67,91.73,43.27,92,44,92.33Z"/><path class="cls-1" d="M53.27,97.93c-.1-.1-.2-.1-.2-.2l-.9-.6.9.6Z"/><path class="cls-1" d="M84.87,131.23c-.1-.1-.2-.3-.3-.4h0A1.38,1.38,0,0,0,84.87,131.23Z"/><path class="cls-1" d="M167,113.33c-1.7-7.4-5.5-12.3-10-12.6h-1.1a8.79,8.79,0,0,0-6.2,3.7l-3.1,1-10.5,3.4a7.51,7.51,0,0,0-2.6-.5,8.27,8.27,0,0,0-6.4,3.4l-16.9,5.5c-.3,0-.5-.1-.8-.1a8.13,8.13,0,0,0-5.3,2l-20.3,6.6a162.75,162.75,0,0,1,9.2,13.9c2.4-.9,8.3-2.9,22.1-7.8h0c.1.7.2,1.4.3,2.2v.1h0c-.4.1-.8.3-1.2.4h0a4.18,4.18,0,0,0-1,.4c-.2.1-.3.1-.5.2s-.6.2-1,.3h0l-.9.3c-.8.3-1.5.5-2.2.8a6.89,6.89,0,0,0-.8.3h0c-.3.1-.5.2-.8.3a8.8,8.8,0,0,1-1.5.5c-.2.1-.5.2-.7.3-.8.3-1.6.6-2.3.8-.3.1-.5.2-.8.3-.1,0-.1,0-.2.1l-.9.3c-1.1.4-2,.7-2.8,1-.1,0-.1.1-.2.1h-.1c-.1,0-.2.1-.3.1s-.3.1-.4.1a.35.35,0,0,0-.2.1c-.2.1-.4.1-.6.2s-.2.1-.3.1a16.19,16.19,0,0,0-1.7.6c-.1,0-.2.1-.4.1a2.54,2.54,0,0,1-.7.2c-.1,0-.1.1-.2.1s-.1,0-.2.1h-.1c-.1,0-.1,0-.2.1h-.1c-.1,0-.1,0-.1.1h0v-.1h0a2.19,2.19,0,0,1-.3-.5c0-.1-.1-.1-.1-.2s-.1-.1-.1-.2-.1-.1-.1-.2-.1-.1-.1-.2-.1-.2-.2-.4-.1-.2-.2-.3a.1.1,0,0,0-.1-.1c0-.1-.1-.1-.1-.2a.1.1,0,0,0-.1-.1c-.1-.1-.1-.2-.2-.3s-.2-.3-.3-.5-.2-.3-.3-.5-.2-.3-.3-.4-.2-.3-.3-.4a2.09,2.09,0,0,0-.4-.6,2.19,2.19,0,0,0-.3-.5c-.1-.1-.2-.3-.3-.4s-.2-.3-.3-.4l-.6-.9c-.2-.2-.3-.5-.5-.7a.52.52,0,0,1-.2-.4h0c-.1-.1-.1-.2-.2-.3a5.58,5.58,0,0,1-.5-.8c-.3-.5-.7-1-1.1-1.6-.1-.1-.2-.3-.3-.4h0a14.63,14.63,0,0,1-.9-1.3c-.1-.1-.2-.3-.3-.4s-.1-.2-.2-.3h0c0-.1-.1-.1-.1-.2-.2-.3-.4-.5-.6-.8a.1.1,0,0,0-.1-.1c-.2-.2-.3-.4-.5-.6-.5-.6-1-1.3-1.5-2a1.76,1.76,0,0,0-.4-.5c-.4-.6-.9-1.1-1.3-1.7a5.5,5.5,0,0,0-.7-.9c-.2-.3-.5-.6-.7-.9-.5-.6-.9-1.2-1.4-1.7l-1.5-1.8a6.47,6.47,0,0,0-.8-.9c-.3-.3-.6-.7-.9-1s-.5-.5-.7-.8c-.7-.8-1.5-1.6-2.2-2.4a9162596898156.82,9162596898156.82,0,0,0-.6-.8,4.35,4.35,0,0,1-.6-.7c-.5-.5-.9-1-1.4-1.5l-.9-.9c-.3-.2-.5-.5-.8-.7s-.5-.5-.8-.7l-.4-.4c-.5-.5-1.1-1-1.7-1.5a6.47,6.47,0,0,0-.9-.8,5.72,5.72,0,0,1-.8-.7l-.1-.1c-.3-.3-.6-.5-.9-.8-.1-.1-.2-.1-.2-.2a4.35,4.35,0,0,0-.7-.6c-.3-.2-.6-.5-.9-.7a2.18,2.18,0,0,1-.5-.4l-1.6-1.3-.4-.3A2.18,2.18,0,0,1,55,99a20.28,20.28,0,0,0-1.8-1.3c-.1-.1-.2-.1-.2-.2l-.9-.6-1-.7c-.3-.2-.7-.4-1-.6H50c-.2-.1-.4-.3-.6-.4a11.78,11.78,0,0,0-1.9-1.1c-.3-.2-.6-.3-.9-.5s-.6-.3-.9-.5h-.1c-.3-.2-.6-.3-.9-.5s-.6-.3-.9-.5c-.6-.3-1.3-.6-1.9-.9-.2-.1-.5-.2-.7-.3s-.7-.3-1-.4-.5-.2-.7-.3c-.4-.1-.8-.3-1.1-.4-.1,0-.2-.1-.3-.1v12.2c17.3,6.1,32.2,23.7,41.9,36.4a169.41,169.41,0,0,1,11.9,17.8s.4-.1,9.2-3.3v.1c2.1,3.9,5,6.1,8.1,6.1,4.8,0,8.8-4.8,10.5-12.5a.37.37,0,0,1,.1-.3c1.8-.6,3.7-1.3,5.7-2v.1c2.2,3.8,4.9,5.9,7.8,5.9,4.7,0,8.7-4.7,10.5-12.2a.37.37,0,0,1,.1-.3c1.3-.5,2.6-.9,4-1.4v.1c2.1,3.9,5.1,6.1,8.3,6.1,5.2,0,9.4-5.6,10.9-14.4a36.43,36.43,0,0,0,.5-6.7A24.47,24.47,0,0,0,167,113.33ZM99,130Zm15,18.6c-1.2,3.3-3,5.4-4.6,5.4-1,0-2.2-1-3.3-2.7C108.37,150.63,111,149.73,114,148.63Zm5.6-3.9a11.63,11.63,0,0,1-.4,1.8.37.37,0,0,1-.1.3c-1.7,7.2-5.4,11.6-9.7,11.6-2.7,0-5.2-1.9-7.2-5.2,1-.4,2.1-.7,3.3-1.2,1.2,1.9,2.5,2.9,3.8,2.9,2,0,4.1-2.4,5.5-6.3,0-.1.1-.2.1-.3.1-.4.3-.8.4-1.2a31.4,31.4,0,0,0,1.2-8.9c0-1.4-.1-2.8-.2-4.2v-.1h0a15.72,15.72,0,0,0-.4-2.3h0c-1.2-5.9-3.8-10.1-6.5-10.1-2.2,0-4.3,2.3-5.5,6.2,0,.1-.1.2-.1.4l-.4,1.7a2.87,2.87,0,0,1-1.3.8,2.16,2.16,0,0,1-2.6-.7l.9-2.6c1.8-5.9,5.1-9.4,9.1-9.4,4.4,0,8.1,4.6,9.8,12,0,.2.1.3.1.5a20.69,20.69,0,0,1,.4,2.2v.1h0a49.07,49.07,0,0,1,.4,5.5A62.62,62.62,0,0,1,119.57,144.73Zm6-14h-.1c-.2.1-.3.1-.5.2s-.3.1-.4.1h-.2c-.2.1-.3.1-.5.2s-.3.1-.5.2-.5.2-.7.3-.3.1-.5.2h0c-.4.1-.7.3-1.1.4a1.45,1.45,0,0,1-.7.2h0a22.31,22.31,0,0,0-.4-2.3l2.5-.9,16.8-5.9h0c.1.7.2,1.5.3,2.2v.1h0c-.2.1-.5.2-.7.3-.4.2-.9.3-1.3.5s-.7.3-1.1.4c-1,.3-1.9.7-2.9,1-.4.2-.9.3-1.3.5-.1,0-.2.1-.4.1s-.1,0-.2.1a1.45,1.45,0,0,1-.7.2.1.1,0,0,0-.1.1,1.42,1.42,0,0,1-.6.2,14.58,14.58,0,0,0-1.9.7c-.4.1-.8.3-1.2.4-.2.1-.4.1-.6.2A2.65,2.65,0,0,0,125.57,130.73Zm12.4,9.4c-1.2,3.1-2.9,5.1-4.4,5.1-1.1,0-1.9-.7-3-2.5C133,141.93,135.37,141,138,140.13Zm5.7-4.2c-.1.7-.3,1.5-.4,2.2a.37.37,0,0,1-.1.3c-1.7,7-5.4,11.3-9.6,11.3-2.6,0-4.9-1.7-6.8-5l3.3-1.2c1.1,1.9,2.2,2.7,3.5,2.7,1.9,0,3.9-2.2,5.3-5.9,0-.1.1-.2.1-.3.2-.5.3-1,.5-1.5a31.4,31.4,0,0,0,1.2-8.9c0-1.3-.1-2.6-.2-3.9v-.1h0c-.1-.8-.2-1.5-.3-2.3a.37.37,0,0,0-.1-.3c-1.2-5.9-3.8-10.1-6.5-10.1-2.1,0-4.4,2.8-5.8,7.2v.2l-.2.9a2.83,2.83,0,0,1-1.5,1.1,2.52,2.52,0,0,1-2.3-.3.37.37,0,0,1,.1-.3c.2-1,.5-1.9.7-2.6,0-.1.1-.3.1-.4l.1-.2a16.74,16.74,0,0,1,4.2-7.1,7.42,7.42,0,0,1,4.8-2.1,4.87,4.87,0,0,1,1.2.1h0c3.9.7,7.1,5.1,8.6,11.9.1.3.1.5.2.8.1.7.3,1.4.4,2.2v.1h0a44.05,44.05,0,0,1,.3,5.2C144.27,131.63,144.07,133.83,143.67,135.93Zm3.8-13c-.4.1-.8.3-1.1.4s-.7.3-1.1.4c-.2.1-.3.1-.5.2h0a18.46,18.46,0,0,0-.4-2.3c4.5-1.6,9.3-3.3,14.6-5.2l2-.7,1.2-.4h0a16.6,16.6,0,0,1,.3,2.2v.1h0c-.9.3-1.8.7-2.8,1-.7.2-1.4.5-2.1.7h0c-.7.2-1.4.5-2,.7s-1.3.5-2,.7l-2.4.9c-.2.1-.3.1-.5.2l-.9.3C149,122.43,148.17,122.73,147.47,122.93ZM161,132c-1.2,3.4-3,5.6-4.6,5.6-1.1,0-2.2-1-3.3-2.8C155.57,133.93,158.27,133,161,132Zm5.5-3.8c0,.2-.1.5-.1.7l-.3,1.2c-1.7,7.2-5.4,11.8-9.7,11.8-2.7,0-5.3-1.9-7.3-5.3,1.1-.4,2.3-.8,3.4-1.2,1.2,1.9,2.6,3,3.9,3,2,0,4.1-2.4,5.5-6.4,0-.1.1-.2.1-.3.1-.3.2-.7.3-1a31.4,31.4,0,0,0,1.2-8.9,30,30,0,0,0-.3-4.3v-.1h0a17,17,0,0,0-.4-2.2v-.1a9.36,9.36,0,0,0-.4-1.6h0c-1.2-4.5-3.2-7.6-5.3-8.3h0a2.2,2.2,0,0,0-.8-.1c-1.6,0-3.3,1.6-4.6,4.3a23.29,23.29,0,0,0-1.1,2.8h0v.1l-.2.8a2.73,2.73,0,0,1-1.6,1.1,2.57,2.57,0,0,1-2.3-.3c0-.2.1-.3.1-.5.2-.9.4-1.6.6-2.4l.3-.9a23.22,23.22,0,0,1,1.8-3.9,12.61,12.61,0,0,1,1.9-2.5h0a7,7,0,0,1,5.2-2.4h.9c4,.6,7.4,5.1,8.9,11.9a36.16,36.16,0,0,1,.9,8.2A44.07,44.07,0,0,1,166.47,128.23Z"/><path class="cls-1" d="M54.87,86.63c-1.7.4-3.3.8-4.7,1.1h0c-.1,0-.3.1-.4.1-.3.1-.6.1-.8.2-1.4.3-2.6.6-3.6.8-.2,0-.4.1-.6.1s-.6.1-.9.2-.3.1-.5.1h-.1c-.1,0-.3.1-.4.1h0c-.2,0-.3.1-.5.1h0c-.2,0-.3.1-.5.1s-.3.1-.5.1-.3.1-.5.1h-.8c-.2,0-.5.1-.6.1h-1.3Q44,88,49.27,86.53c1.4-.4,2.8-.8,4.1-1.2A17.38,17.38,0,0,0,54.87,86.63Z"/><path class="cls-1" d="M155.87,99.93c-1.3-1.2-29.4-25.9-39.7-29.3-1.6.4-3.1.9-4.6,1.3l-4.2,1.2h0a2.92,2.92,0,0,0,.2-.9c.1-.3.1-.6.2-.9s.1-.7.2-1.1a.9.9,0,0,1,.1-.5v-.5h0c1.3-.4,2.3-.7,3.2-1h0l4-1.2S139.77,80.63,155.87,99.93Z"/><path class="cls-1" d="M111.27,68.63v-.5c-.1-.7-.2-1.3-.3-1.9a16.91,16.91,0,0,0-1.6-4.8c.2.5.4,1.1.6,1.6h0c.1.2.1.4.2.6v.1h0c.1.2.1.4.2.5h0c0,.1.1.3.1.4v.1h0c.1.3.1.6.2.8s.1.3.1.4.1.3.1.4v.1c0,.1.1.2.1.4a5.85,5.85,0,0,1,.2,1.3v.1h0a1,1,0,0,1,.1.4Z"/><path class="cls-1" d="M111.47,70.13c0-.4-.1-.9-.1-1.3h0v0a.6.6,0,0,0-.1-.4h0v-.1c-.1-.4-.1-.9-.2-1.3a.76.76,0,0,0-.1-.4v-.1c0-.1-.1-.3-.1-.4s-.1-.3-.1-.4c-.1-.3-.1-.6-.2-.8h0c0-.1-.1-.3-.1-.4h0c-.1-.2-.1-.4-.2-.5h0v-.1c-.1-.2-.1-.4-.2-.6-.2-.5-.4-1.1-.6-1.6,0-.1-.1-.1-.1-.2a14.29,14.29,0,0,0-1.4-2l-.4-.2L107,59a37.3,37.3,0,0,1-7.3-4.6h0l-.3-.3.3.3a63.71,63.71,0,0,0-.6-15.1,117.37,117.37,0,0,0-3.5-15.6,75.63,75.63,0,0,0-3.2-9.1,14.79,14.79,0,0,0-1.9-3.5c-4.4-4.8-11.6-5-17.5-3.2a6.07,6.07,0,0,0-1-.7l-1-.7A39.78,39.78,0,0,0,50.37,0a50.33,50.33,0,0,0-7.7.4,39.51,39.51,0,0,0-29.8,21.2c-7.6,3.5-14,9.8-12.7,18.9.9,6.9,1.2,13.9,1.9,20.9,1.1,9.7,2.5,27.5,12.9,31.8l.5.2h.6c7.3-.3,13.1-8.6,17.2-17.1a33.64,33.64,0,0,0,12.9,9.5c1,.4,1.9.8,2.9,1.1l.1.1c.3.4.6.7.9,1.1h0A26,26,0,0,0,71,96.93a26.69,26.69,0,0,0,20.1-11.3,14.42,14.42,0,0,0,2.7,2.2,9.42,9.42,0,0,0,7.8.9,13.51,13.51,0,0,0,8-7.2,20.9,20.9,0,0,0,2-9.2C111.57,71.33,111.47,70.73,111.47,70.13ZM85.57,12a13.93,13.93,0,0,1,1.9,1.5,8,8,0,0,1,2.6,3.4,109.92,109.92,0,0,1,6.7,22.5,62.78,62.78,0,0,1,1,13,19.2,19.2,0,0,0,1.5,1.4,13.44,13.44,0,0,0-1.4-1.1c-.6-.6-1.3-1.2-1.9-1.8-.8-.8-1.6-1.7-2.4-2.6a49.9,49.9,0,0,1-6.1-9.1v-.7c.9-10.9-4.1-21.7-12.2-28.9C79,9.53,82.57,10,85.57,12ZM108,69.13a18658203184864.21,18658203184864.21,0,0,1-.2,1,4.25,4.25,0,0,1-.2,1.1c-.1.3-.1.6-.2.9s-.1.6-.2.9h0a6.89,6.89,0,0,1-.3.8c-.1.2-.1.4-.2.5-.1.3-.2.5-.3.8s-.3.9-.5,1.3c-.1.2-.2.5-.3.7s-.1.1-.1.2l-.3.6a14.31,14.31,0,0,1-1.6,2.4c-.2.2-.3.4-.5.6l-.3.3-.8.8c-.1.1-.2.1-.3.2s-.3.3-.5.4a2.51,2.51,0,0,1-.7.4,1.49,1.49,0,0,1-.7.3h-.1c-.2.1-.5.2-.7.3-1.7.7-3.7-.5-5.2-2l-.3-.3a3.92,3.92,0,0,1-.8-1c.3-.5.5-1.1.8-1.6.1-.2.2-.5.3-.7.2-.5.4-1.1.6-1.6s.3-.9.4-1.4c1.3-.7,8.1-4.7,6.3-11.5h0a1,1,0,0,0-1.5-.6,32.43,32.43,0,0,1-4.9,2.2c-2.4.8-5,1.5-7.2,2-2,.5-3.8.8-4.8,1a1,1,0,0,0-.8,1.3,7.92,7.92,0,0,0,5.7,5.9,1.27,1.27,0,0,0,.6.1c0,.1-.1.3-.1.4-.3.9-.7,1.8-1.1,2.7a.1.1,0,0,1-.1.1c-.2.4-.4.7-.6,1.1s-.4.7-.6,1c-.4.7-.9,1.3-1.3,1.9-.2.2-.3.4-.5.6a2.65,2.65,0,0,0-.5.6l-.3.3-.3.3-.1.1-.5.5c-.6.6-1.2,1.1-1.9,1.7a19.28,19.28,0,0,1-6,3.2c-.2.1-.4.1-.6.2a.9.9,0,0,1-.5.1,16,16,0,0,1-2.1.5h-.3a21.76,21.76,0,0,1-7.2-.1c-.3-.1-.7-.1-1-.2-.1,0-.2-.1-.3-.1a6.37,6.37,0,0,0-.7-.2h-.2c-.1,0-.1,0-.2-.1s-.3-.1-.4-.1-.4-.1-.6-.2-.3-.1-.5-.2l-.6-.3c-.1,0-.2-.1-.3-.2l-.6-.3a5.94,5.94,0,0,1-.8-.4,2.09,2.09,0,0,1-.6-.4c-.3-.2-.7-.4-1-.6a5.5,5.5,0,0,1-.9-.7c-.1,0-.1-.1-.2-.1l-1.5-1.2a25.11,25.11,0,0,1-7.7-16.7l-2.2-1.7.1,1.5A28.41,28.41,0,0,0,45,77c.2,1.4,1.6,4.4,2.7,6.6a31.92,31.92,0,0,1-13.5-10c1.9-4.1,3.4-8.2,4.5-11,1.4-3.8,2.6-7.7,3.8-11.6v-.2a20.45,20.45,0,0,0-.1-4.3,36.4,36.4,0,0,0-2.8-9.6l-.8-1.8a1.46,1.46,0,0,0-2.7,1.1v.1l.7,1.7c1.3,3.8,2.4,8,2,12-.9,2.6-2.8,7.6-4.2,11-.9,2-2,4.7-3.4,7.4L30,70.83c-3.3,6.5-7.7,13.2-12.3,15.3a2.28,2.28,0,0,1-1.1.3C10,83,8,67,7,60.23c-.9-6.2-1.5-12.6-2.4-18.9a8.58,8.58,0,0,0-.3-1.7,11.38,11.38,0,0,1,.1-5.5c.9-3.2,3.3-5.8,6.2-7.9a28.55,28.55,0,0,1,5.4-3,45.1,45.1,0,0,1,8.3-2.8,1.54,1.54,0,0,0,1.2-1.7,1.48,1.48,0,0,0-1.7-1.2c-1,.2-1.8.4-2.8.6a21.72,21.72,0,0,0-2.4.7,35.69,35.69,0,0,1,13.5-11.5c14-6.9,31.8-4.3,42.9,6.8a34.17,34.17,0,0,1,10.2,24.1V39l.3,1c.1.2.1.3.2.5a39.87,39.87,0,0,0,11.2,14.8,31.19,31.19,0,0,0,9.7,5.5,16.2,16.2,0,0,1,1.2,4.3A10.8,10.8,0,0,1,108,69.13Z"/><path class="cls-1" d="M99.67,54.13h0l-.3-.3Q99.37,54,99.67,54.13Z"/><path class="cls-1" d="M86.37,79.73c-.2.3-.4.7-.6,1A3.33,3.33,0,0,0,86.37,79.73Z"/><path class="cls-1" d="M99.67,54.13h0l-.3-.3Q99.37,54,99.67,54.13Z"/><path class="cls-1" d="M111.27,68.73a.6.6,0,0,0-.1-.4c.1.1.1.2.1.4Z"/><path class="cls-1" d="M54.27,46.53c-3.4,1.1-7.4-2-9-6.9s-.2-9.8,3.2-10.9,7.4,2,9,6.9S57.67,45.43,54.27,46.53Z"/><path class="cls-1" d="M78.07,40.43c-3,.5-5.9-2.9-6.6-7.4s1.2-8.6,4.1-9,5.9,2.9,6.6,7.4S81.07,40,78.07,40.43Z"/><path class="cls-1" d="M85.77,80.73c.2-.3.4-.7.6-1A3.33,3.33,0,0,1,85.77,80.73Z"/></g></svg>