<svg id="Layer_1" data-name="Layer 1" xmlns="http://www.w3.org/2000/svg" viewBox="0 0 832.58 158.61"><defs><style>.cls-1{fill:#0d343d;}</style></defs><g id="PawPlanner"><path class="cls-1" d="M229.24,67.08a20.46,20.46,0,0,1-8.49,8q-5.75,3.06-14.22,3.06H196.06v24.88H179.18V33.79h27.37a31,31,0,0,1,14,2.87,19.63,19.63,0,0,1,8.59,7.89A23,23,0,0,1,232,56.1,22.4,22.4,0,0,1,229.24,67.08Zm-16.79-4.59a8.51,8.51,0,0,0,2.37-6.43,8.45,8.45,0,0,0-2.37-6.38c-1.58-1.51-4-2.28-7.2-2.28h-9.19V64.76h9.19C208.46,64.76,210.87,64,212.45,62.49Z"/><path class="cls-1" d="M246.57,60.51a23.88,23.88,0,0,1,8.74-9.84,22.79,22.79,0,0,1,12.34-3.45,21.24,21.24,0,0,1,10.22,2.36,17.32,17.32,0,0,1,6.76,6.23V48h16.88v55.1H284.63v-7.8a18.35,18.35,0,0,1-6.86,6.23,21.21,21.21,0,0,1-10.22,2.36,22.22,22.22,0,0,1-12.24-3.54,24.12,24.12,0,0,1-8.74-9.93,33.19,33.19,0,0,1-3.21-15A32.74,32.74,0,0,1,246.57,60.51Zm34.56,5.06a11.86,11.86,0,0,0-16.78-.3,2.83,2.83,0,0,0-.3.3q-3.49,3.6-3.51,9.93c0,4.21,1.16,7.53,3.51,9.93a11.73,11.73,0,0,0,16.6.47c.17-.15.32-.31.48-.47,2.33-2.44,3.5-5.76,3.5-9.93S283.46,68,281.13,65.57Z"/><path class="cls-1" d="M398.78,48l-14.89,55.1H365.22l-8.69-35.75-8.94,35.75H329L314,48h16.88l7.78,39.44L347.91,48h17.87l9.39,39.21L382.87,48Z"/><path class="cls-1" d="M461.19,67.08a20.28,20.28,0,0,1-8.49,8q-5.73,3.06-14.22,3.06H428v24.88H411.12V33.79h27.35a31,31,0,0,1,14,2.87,19.63,19.63,0,0,1,8.59,7.89A22.87,22.87,0,0,1,464,56.1,22.28,22.28,0,0,1,461.19,67.08ZM444.4,62.49a8.52,8.52,0,0,0,2.38-6.43,8.5,8.5,0,0,0-2.38-6.38c-1.57-1.51-4-2.28-7.2-2.28H428V64.76h9.19c3.23,0,5.64-.76,7.21-2.27Z"/><path class="cls-1" d="M495.53,30v73.07H478.65V30Z"/><path class="cls-1" d="M513.57,60.51a24,24,0,0,1,8.77-9.84,22.79,22.79,0,0,1,12.34-3.45,21.25,21.25,0,0,1,10.23,2.36,17.32,17.32,0,0,1,6.76,6.23V48h16.89v55.1H551.67v-7.8a18.28,18.28,0,0,1-6.86,6.23,21.21,21.21,0,0,1-10.22,2.36,22.36,22.36,0,0,1-12.25-3.54,24.19,24.19,0,0,1-8.74-9.93,33.33,33.33,0,0,1-3.21-15A33,33,0,0,1,513.57,60.51Zm34.59,5.06a11.86,11.86,0,0,0-16.78-.3c-.1.09-.2.2-.3.3q-3.51,3.6-3.51,9.93c0,4.21,1.17,7.53,3.49,9.93a11.74,11.74,0,0,0,16.61.47c.16-.15.32-.31.47-.47,2.33-2.44,3.51-5.76,3.51-9.93S550.47,68,548.16,65.57Z"/><path class="cls-1" d="M635.73,53.65q5.78,6.27,5.78,17.23v32.19h-16.8V73.15c0-3.68-1-6.55-2.86-8.59a11.21,11.21,0,0,0-15.41,0c-1.9,2-2.86,4.91-2.86,8.59v29.92H586.7V48h16.88v7.31a18,18,0,0,1,6.95-5.78,22.07,22.07,0,0,1,9.79-2.13Q630,47.37,635.73,53.65Z"/><path class="cls-1" d="M708.21,53.65Q714,59.92,714,70.88v32.19H697.22V73.15c0-3.68-1-6.55-2.87-8.59a11.2,11.2,0,0,0-15.4,0c-1.91,2-2.86,4.91-2.86,8.59v29.92H659.2V48h16.89v7.31A17.81,17.81,0,0,1,683,49.5a22,22,0,0,1,9.77-2.13Q702.43,47.37,708.21,53.65Z"/><path class="cls-1" d="M783.31,79.57H745.08c.27,3.43,1.37,6,3.32,7.85a10.13,10.13,0,0,0,7.15,2.72q6.33,0,8.79-5.34h18a24.73,24.73,0,0,1-5,9.78,25.15,25.15,0,0,1-9,6.82,29.15,29.15,0,0,1-12.14,2.46,29.53,29.53,0,0,1-14.42-3.46,24.43,24.43,0,0,1-9.87-9.87,30.4,30.4,0,0,1-3.58-15,30.86,30.86,0,0,1,3.51-15,24.25,24.25,0,0,1,9.82-9.82,29.82,29.82,0,0,1,14.52-3.45,29.36,29.36,0,0,1,14.22,3.35,24.06,24.06,0,0,1,9.73,9.58,29,29,0,0,1,3.49,14.51A42.41,42.41,0,0,1,783.31,79.57Zm-17-9.39a8.69,8.69,0,0,0-3-7,11,11,0,0,0-7.41-2.56,10.7,10.7,0,0,0-7.17,2.5,11,11,0,0,0-3.61,7Z"/><path class="cls-1" d="M822.7,50a19.05,19.05,0,0,1,9.88-2.63V65.25h-4.65q-6.31,0-9.47,2.72c-2.11,1.81-3.16,5-3.17,9.51v25.59H798.41V48h16.88v9.19A22.34,22.34,0,0,1,822.7,50Z"/></g><path class="cls-1" d="M54.55,86.47l-4.64,1.06h0l-.43.09-.83.19L45,88.59l-.61.12-.88.17-.46.08H43l-.42.08h0l-.45.08h0l-.49.09-.5.08-.45.08h-.78l-.63.09h-1.2l10.91-3,4.09-1.21A17.34,17.34,0,0,0,54.55,86.47Z"/><path class="cls-1" d="M154.91,99.67c-1.3-1.15-29.24-25.73-39.47-29.08-1.55.43-3.09.87-4.59,1.26L106.67,73h0c.08-.32.15-.63.22-1s.12-.59.18-.9.12-.7.16-1v-1h0c1.29-.38,2.33-.7,3.2-1h0l4-1.2S138.84,80.53,154.91,99.67Z"/><path class="cls-1" d="M110.59,68.6a1.38,1.38,0,0,0,0-.45c-.08-.66-.18-1.29-.31-1.93a20,20,0,0,0-1.56-4.79c.22.52.42,1,.61,1.59h0c.06.19.13.38.18.57v.12a0,0,0,0,0,0,0c.06.18.11.36.16.54h0l.11.41h0l.21.83a1.45,1.45,0,0,0,.1.41,2.87,2.87,0,0,1,.08.38.17.17,0,0,1,0,.1.64.64,0,0,0,.08.37c.08.42.16.84.22,1.27v.09h0a1.21,1.21,0,0,0,0,.42Z"/><path class="cls-1" d="M110.73,70a11.74,11.74,0,0,0-.13-1.33h0a.17.17,0,0,1,0-.1v.09a1.21,1.21,0,0,0,0-.42h0v-.09c-.07-.43-.14-.86-.22-1.27a.61.61,0,0,0-.08-.37.17.17,0,0,0,0-.1.66.66,0,0,0-.08-.38,1.17,1.17,0,0,1-.1-.41c0-.14-.14-.55-.22-.83h0l-.12-.42h0a2.18,2.18,0,0,0-.15-.54,0,0,0,0,1,0,0V63.7l-.18-.57c-.19-.54-.39-1.07-.61-1.59,0-.06-.06-.11-.08-.16a16.07,16.07,0,0,0-1.41-2l-.35-.23-.6-.29a37.46,37.46,0,0,1-7.24-4.54h0L98.77,54l.34.27a61,61,0,0,0-.81-15,116.11,116.11,0,0,0-3.47-15.53c-.92-3.05-2-6.09-3.14-9.06a13.92,13.92,0,0,0-1.91-3.46C85.5,6.42,78.3,6.24,72.48,8l-1-.74-1-.69A40.25,40.25,0,0,0,50,0a44,44,0,0,0-7.61.39A39.37,39.37,0,0,0,12.77,21.53C5.21,25-1.13,31.27.17,40.26,1.05,47.17,1.35,54.07,2.05,61c1.12,9.65,2.48,27.32,12.84,31.58l.53.22h.63c7.26-.28,13-8.57,17.08-17A33.18,33.18,0,0,0,46,85.27c1,.4,2,.75,2.92,1.08l.09.11c.3.38.6.73.9,1.08h0A25.78,25.78,0,0,0,90.59,85a12.24,12.24,0,0,0,2.66,2.15,9.2,9.2,0,0,0,7.72.92A13.4,13.4,0,0,0,108.91,81a20.08,20.08,0,0,0,2-9.11C110.81,71.25,110.79,70.63,110.73,70ZM85,12.33a18.43,18.43,0,0,1,1.87,1.54,8.59,8.59,0,0,1,2.6,3.37,104.87,104.87,0,0,1,6.65,22.33,58.19,58.19,0,0,1,1,12.91c.49.48,1,1,1.47,1.41q-.68-.55-1.35-1.14c-.64-.57-1.26-1.17-1.88-1.77-.81-.83-1.58-1.67-2.34-2.55a49.19,49.19,0,0,1-6.07-9V38.7C87.87,27.83,83,17.12,74.9,10,78.44,9.88,82.05,10.36,85,12.33ZM107.32,69.1l-.08.44-.06.48a6.35,6.35,0,0,1-.16,1c-.06.35-.11.6-.18.9s-.14.63-.22,1h0c-.08.28-.16.56-.25.83s-.11.37-.17.55-.18.52-.29.79c-.17.43-.34.84-.52,1.25-.09.24-.21.47-.32.7l-.1.19c-.11.19-.21.4-.33.6a16.6,16.6,0,0,1-1.6,2.39c-.16.19-.32.37-.49.55l-.25.28a8.28,8.28,0,0,1-.82.75.86.86,0,0,1-.26.2,3.14,3.14,0,0,1-.51.39,6.54,6.54,0,0,1-.71.45,4.73,4.73,0,0,1-.68.33.06.06,0,0,1-.06,0,6,6,0,0,1-.7.28c-1.71.68-3.69-.45-5.18-2a3,3,0,0,1-.3-.32,7,7,0,0,1-.79-1c.26-.53.53-1.07.75-1.61.11-.23.21-.47.3-.71.23-.52.42-1.06.61-1.61s.29-.92.43-1.39c1.26-.68,8-4.67,6.26-11.44h0a1,1,0,0,0-1.19-.74.86.86,0,0,0-.35.16A26.41,26.41,0,0,1,94.19,65c-2.35.79-5,1.45-7.19,2-2,.44-3.72.77-4.76,1a1,1,0,0,0-.86,1.12,1.36,1.36,0,0,0,0,.17,7.78,7.78,0,0,0,5.63,5.86,3.5,3.5,0,0,0,.64.15,1.28,1.28,0,0,1-.13.42,25.69,25.69,0,0,1-1.08,2.67l-.06.11c-.17.36-.36.72-.55,1.08s-.39.67-.59,1A20.91,20.91,0,0,1,84,82.45c-.15.21-.31.4-.47.6s-.35.42-.54.63-.17.2-.26.29l-.27.29a.58.58,0,0,1-.1.12l-.54.54a23,23,0,0,1-1.9,1.66,20.1,20.1,0,0,1-6,3.21,5.05,5.05,0,0,1-.55.18,3.64,3.64,0,0,1-.47.14,19,19,0,0,1-2.11.48,1,1,0,0,0-.25,0,20.38,20.38,0,0,1-7.18-.14c-.33-.06-.66-.14-1-.22l-.31-.07L61.4,90h-.21L61,89.91l-.44-.11L60,89.58l-.41-.18L59,89.13a2.11,2.11,0,0,1-.34-.16c-.22-.09-.42-.19-.62-.29s-.55-.29-.81-.45l-.59-.35-1-.62a10.52,10.52,0,0,1-.9-.67l-.16-.11c-.51-.4-1-.8-1.46-1.23a24.94,24.94,0,0,1-7.65-16.62l-2.17-1.69.07,1.52A28.48,28.48,0,0,0,44.89,77a35.33,35.33,0,0,0,2.64,6.55,31.08,31.08,0,0,1-13.38-9.89c1.89-4.15,3.38-8.12,4.47-11,1.38-3.81,2.62-7.61,3.74-11.53V51a19,19,0,0,0-.08-4.26,37.27,37.27,0,0,0-2.76-9.54l-.8-1.84A1.48,1.48,0,1,0,36,36.46v.06l.67,1.72c1.33,3.81,2.4,7.94,2,12-.87,2.6-2.73,7.59-4.17,10.93-.87,2-2,4.62-3.37,7.38-.38.79-.79,1.62-1.22,2.43-3.32,6.44-7.62,13.12-12.23,15.22a3.64,3.64,0,0,1-1.06.29c-6.57-3.33-8.52-19.28-9.54-26-.84-6.21-1.44-12.54-2.34-18.76,0-.19-.25-1.58-.29-1.72a11.42,11.42,0,0,1,.13-5.42c.92-3.18,3.26-5.77,6.17-7.82a30.91,30.91,0,0,1,5.33-3A49,49,0,0,1,24.29,21,1.49,1.49,0,0,0,23.75,18c-1,.18-1.83.39-2.76.62s-1.55.42-2.34.66A35.33,35.33,0,0,1,32.07,8C46,1.09,63.64,3.71,74.67,14.73a33.69,33.69,0,0,1,10.12,23.9v.74l.29,1c.06.16.12.32.19.48a39.64,39.64,0,0,0,11,14.71A32,32,0,0,0,106,61a15.59,15.59,0,0,1,1.24,4.23A17,17,0,0,1,107.32,69.1Z"/><path class="cls-1" d="M99,54.17h0l-.34-.32Z"/><path class="cls-1" d="M85.87,79.61c-.19.34-.39.67-.59,1C85.48,80.28,85.67,80,85.87,79.61Z"/><path class="cls-1" d="M99,54.17h0l-.34-.32Z"/><path class="cls-1" d="M110.59,68.69a1.21,1.21,0,0,0,0-.42.76.76,0,0,0,0,.33Z"/><path class="cls-1" d="M54,46.62c-3.31,1.07-7.28-2-8.91-6.87S44.86,30.06,48.2,29s7.33,2,8.94,6.85S57.29,45.53,54,46.62Z"/><path class="cls-1" d="M77.62,40.6c-3,.45-5.89-2.84-6.57-7.33s1.16-8.49,4.11-8.93,5.88,2.84,6.57,7.32S80.57,40.16,77.62,40.6Z"/><path class="cls-1" d="M85.28,80.61c.2-.33.4-.66.59-1Z"/><path class="cls-1" d="M41.8,91.26,41.12,91l-1-.42-.71-.28-1.14-.42L38,89.74v12.14c17.19,6.08,32,23.5,41.61,36.15a163.2,163.2,0,0,1,11.85,17.72s.43-.14,9.18-3.24v.06c2.12,3.89,5,6,8.06,6,4.73,0,8.74-4.77,10.47-12.44l.06-.24,5.69-2V144c2.14,3.81,4.82,5.83,7.74,5.83,4.64,0,8.62-4.64,10.4-12.1l.06-.25,4-1.4v.06c2.12,3.88,5.11,6.09,8.21,6.09,5.12,0,9.38-5.6,10.83-14.28a39.46,39.46,0,0,0,.55-6.6,38.09,38.09,0,0,0-.82-8.39c-1.64-7.37-5.46-12.17-9.93-12.51h-1a8.77,8.77,0,0,0-6.14,3.67l-3,1-10.41,3.4a7.21,7.21,0,0,0-2.55-.48,8.36,8.36,0,0,0-6.36,3.38l-16.81,5.48a5.61,5.61,0,0,0-.82,0,7.94,7.94,0,0,0-5.26,2L83.3,125.45c4.53,6.16,7.69,11.28,9.16,13.78l21.91-7.73h0c.13.68.24,1.41.33,2.18v.09h0l-1.17.42h0l-1,.35-.48.18-1,.34h0l-.93.33-2.2.77-.83.3h0l-.8.28-1.52.55-.72.24-2.31.82-.74.27-.16,0L100,139l-2.77,1L97,140H97l-.27.1-.38.14-.24.07-.57.2-.32.12-1.68.6-.36.12-.69.25-.21.07-.18.05-.11.05-.17.06h-.23v-.06h0l-.31-.53-.12-.21-.1-.19-.09-.16-.1-.16-.21-.35c-.06-.11-.13-.22-.21-.34l-.06-.11-.09-.15-.07-.11-.2-.34c-.1-.15-.19-.31-.29-.47l-.31-.51-.25-.41-.27-.41-.37-.59-.33-.54-.26-.39c-.09-.15-.19-.3-.29-.45l-.58-.89c-.16-.23-.3-.47-.46-.71l-.24-.36v0l-.21-.31-.51-.76c-.34-.52-.7-1-1.08-1.57l-.26-.38h0l-1.12-1.23c-.1-.14-.2-.29-.31-.42l-.18-.26h0l-.11-.16-.59-.82-.1-.14-.47-.64c-.46-.64-1-1.29-1.46-2l-.35-.45-1.29-1.68-.66-.85-.69-.85-1.42-1.67c-.47-.58-1-1.16-1.46-1.75l-.75-.88-.87-1-.67-.78c-.73-.8-1.46-1.62-2.21-2.42-.11-.12-.23-.24-.34-.37l-.34-.35-.63-.65-1.42-1.46c-.27-.29-.57-.58-.86-.86l-.74-.74-.78-.74-.41-.39-1.64-1.52-.92-.82-.83-.74-.1-.09-.88-.74-.23-.2-.67-.57-.86-.7-.54-.43c-.54-.44-1.07-.85-1.62-1.26l-.43-.33L54.8,99c-.61-.44-1.21-.89-1.83-1.32l-.24-.16c-.29-.2-.57-.4-.87-.59s-.68-.46-1-.69l-1-.62H49.8l-.6-.38c-.62-.38-1.23-.75-1.86-1.1l-.86-.49-.89-.48H45.5l-.87-.45-.94-.59ZM113.2,148c-1.23,3.31-3,5.41-4.54,5.41-1,0-2.21-1-3.24-2.66Zm5.5-3.85c-.11.6-.23,1.22-.37,1.8a.54.54,0,0,1-.06.25c-1.66,7.13-5.33,11.55-9.61,11.55-2.66,0-5.17-1.83-7.12-5.19l3.32-1.18c1.16,1.84,2.5,2.85,3.8,2.85,2,0,4-2.34,5.41-6.26a1.12,1.12,0,0,1,.1-.31c.14-.38.26-.77.37-1.16a32.93,32.93,0,0,0,1.15-8.83,31.93,31.93,0,0,0-.24-4.14.14.14,0,0,0,0-.09h0c-.09-.79-.21-1.56-.35-2.26h0c-1.16-5.9-3.8-10-6.43-10-2.22,0-4.23,2.24-5.51,6.16a2,2,0,0,1-.12.38l-.44,1.72a2.8,2.8,0,0,1-1.3.8,2.15,2.15,0,0,1-2.6-.69l1-2.61c1.75-5.9,5-9.29,9-9.29,4.35,0,8.06,4.56,9.7,11.92a2.46,2.46,0,0,0,.1.47c.16.75.28,1.47.38,2.18v.08h0a39.7,39.7,0,0,1-.15,11.92Zm6-14h-.1l-.48.15-.36.14h-.2l-.47.16-.46.17-.73.26-.51.18h0l-1.06.38-.64.22h0c-.1-.73-.23-1.47-.4-2.25l2.43-.86,16.66-6h0c.14.73.24,1.47.32,2.19v.1h0l-.71.25-1.28.46-1.08.37-2.84,1-1.32.46-.35.12-.15.06-.66.23h-.14l-.63.22-1.86.66-1.21.43-.6.21ZM137,139.6c-1.22,3.12-2.89,5-4.4,5-1,0-1.91-.72-3-2.45Zm5.64-4.22c-.12.73-.26,1.45-.42,2.14a1.82,1.82,0,0,1-.07.25c-1.71,6.95-5.36,11.21-9.55,11.21-2.54,0-4.83-1.67-6.79-5l3.3-1.17c1.12,1.84,2.18,2.64,3.49,2.64,1.93,0,3.91-2.21,5.29-5.9l.12-.32c.17-.48.33-1,.47-1.51a32.85,32.85,0,0,0,1.17-8.83,35.29,35.29,0,0,0-.21-3.84V125h0c-.08-.76-.19-1.53-.34-2.28l-.06-.32c-1.15-5.89-3.79-10-6.43-10-2.12,0-4.4,2.79-5.77,7.11v.06a.24.24,0,0,1,0,.12l-.22.86a2.78,2.78,0,0,1-1.53,1.1,2.55,2.55,0,0,1-2.29-.29.48.48,0,0,1,.07-.3,20.65,20.65,0,0,1,.71-2.56,1.62,1.62,0,0,1,.13-.41l.06-.16a16.57,16.57,0,0,1,4.15-7,7,7,0,0,1,4.75-2,7.72,7.72,0,0,1,1.17.11h0c3.84.74,7,5.12,8.54,11.79a5.1,5.1,0,0,0,.15.76c.14.7.26,1.44.36,2.18v.09h0a40,40,0,0,1-.2,11.62Zm3.71-12.91-1.13.4-1.12.39-.48.17h0c-.1-.77-.23-1.54-.38-2.26l14.63-5.09,2-.7L161,115h0c.13.73.25,1.46.33,2.18v.06h0l-2.73,1-2,.73h0l-2,.71-2,.7-2.4.86-.48.16-.93.33Zm13.47,9c-1.23,3.37-3,5.54-4.58,5.54-1.07,0-2.24-1-3.29-2.75Zm5.46-3.74a4.58,4.58,0,0,1-.13.74c-.08.4-.17.8-.26,1.2-1.64,7.16-5.32,11.68-9.65,11.68-2.69,0-5.31-1.92-7.26-5.26l3.4-1.21c1.18,1.9,2.55,3,3.86,3,2,0,4.07-2.38,5.46-6.38a1.24,1.24,0,0,1,.1-.31c.12-.34.22-.68.31-1a32.48,32.48,0,0,0,1.16-8.82,35.55,35.55,0,0,0-.25-4.26V117h0c-.09-.73-.21-1.47-.35-2.2v-.08c-.1-.54-.23-1.08-.36-1.59h0c-1.15-4.43-3.16-7.58-5.27-8.21h0a2.53,2.53,0,0,0-.77-.12c-1.6,0-3.27,1.55-4.58,4.25a21.15,21.15,0,0,0-1.11,2.82h0V112l-.24.83a2.8,2.8,0,0,1-1.55,1.13,2.62,2.62,0,0,1-2.29-.29l.1-.47c.19-.87.38-1.6.62-2.36.09-.29.18-.57.29-.85a19.82,19.82,0,0,1,1.76-3.83,13.5,13.5,0,0,1,1.89-2.49h0a7.12,7.12,0,0,1,5.14-2.38h.85c4,.56,7.33,5,8.85,11.83a37.59,37.59,0,0,1,.85,8.19,39,39,0,0,1-.48,6.48Z"/></svg>
