<?xml version="1.0" encoding="utf-8"?>
<!-- Generator: Adobe Illustrator 26.3.1, SVG Export Plug-In . SVG Version: 6.00 Build 0)  -->
<svg version="1.1" xmlns="http://www.w3.org/2000/svg" xmlns:xlink="http://www.w3.org/1999/xlink" x="0px" y="0px"
	 viewBox="0 0 841.89 595.28" style="enable-background:new 0 0 841.89 595.28;" xml:space="preserve">
<style type="text/css">
	.st0{fill:#F9F4E6;}
</style>
<g id="PawPlanner">
	<g>
		<path class="st0" d="M232.91,294.6c-1.86,3.35-4.71,6.05-8.55,8.1c-3.85,2.06-8.62,3.08-14.32,3.08H199.5v25.06h-17v-69.8h27.54
			c5.57,0,10.27,0.96,14.12,2.88c3.84,1.92,6.73,4.57,8.65,7.96c1.92,3.38,2.88,7.26,2.88,11.63
			C235.7,287.55,234.77,291.25,232.91,294.6z M216.01,289.97c1.59-1.52,2.39-3.68,2.39-6.46c0-2.78-0.8-4.94-2.39-6.46
			c-1.59-1.52-4.01-2.29-7.26-2.29h-9.25v17.5h9.25C211.99,292.26,214.42,291.5,216.01,289.97z"/>
		<path class="st0" d="M250.36,287.98c2.15-4.31,5.09-7.62,8.8-9.94c3.71-2.32,7.86-3.48,12.43-3.48c3.91,0,7.34,0.8,10.29,2.39
			c2.95,1.59,5.22,3.68,6.81,6.26v-7.86h17v55.49h-17v-7.86c-1.66,2.58-3.96,4.67-6.91,6.26c-2.95,1.59-6.38,2.39-10.29,2.39
			c-4.51,0-8.62-1.18-12.33-3.53c-3.71-2.35-6.65-5.7-8.8-10.04c-2.15-4.34-3.23-9.36-3.23-15.06
			C247.13,297.3,248.21,292.29,250.36,287.98z M285.16,293.06c-2.35-2.45-5.22-3.68-8.6-3.68c-3.38,0-6.25,1.21-8.6,3.63
			c-2.35,2.42-3.53,5.75-3.53,9.99c0,4.24,1.18,7.61,3.53,10.09c2.35,2.49,5.22,3.73,8.6,3.73c3.38,0,6.25-1.23,8.6-3.68
			c2.35-2.45,3.53-5.8,3.53-10.04C288.69,298.86,287.52,295.51,285.16,293.06z"/>
		<path class="st0" d="M403.64,275.36l-15.02,55.49h-18.79l-8.75-36l-9.05,36h-18.69l-15.11-55.49h17l7.86,39.68l9.35-39.68h18
			l9.45,39.48l7.76-39.48H403.64z"/>
		<path class="st0" d="M466.49,294.6c-1.86,3.35-4.71,6.05-8.55,8.1c-3.85,2.06-8.62,3.08-14.32,3.08h-10.54v25.06h-17v-69.8h27.54
			c5.57,0,10.27,0.96,14.12,2.88c3.84,1.92,6.73,4.57,8.65,7.96c1.92,3.38,2.88,7.26,2.88,11.63
			C469.27,287.55,468.34,291.25,466.49,294.6z M449.58,289.97c1.59-1.52,2.39-3.68,2.39-6.46c0-2.78-0.8-4.94-2.39-6.46
			c-1.59-1.52-4.01-2.29-7.26-2.29h-9.25v17.5h9.25C445.57,292.26,447.99,291.5,449.58,289.97z"/>
		<path class="st0" d="M501.09,257.26v73.58h-17v-73.58H501.09z"/>
		<path class="st0" d="M519.24,287.98c2.15-4.31,5.09-7.62,8.8-9.94c3.71-2.32,7.86-3.48,12.43-3.48c3.91,0,7.34,0.8,10.29,2.39
			c2.95,1.59,5.22,3.68,6.81,6.26v-7.86h17v55.49h-17v-7.86c-1.66,2.58-3.96,4.67-6.91,6.26c-2.95,1.59-6.38,2.39-10.29,2.39
			c-4.51,0-8.62-1.18-12.33-3.53c-3.71-2.35-6.65-5.7-8.8-10.04c-2.15-4.34-3.23-9.36-3.23-15.06
			C516.01,297.3,517.08,292.29,519.24,287.98z M554.04,293.06c-2.35-2.45-5.22-3.68-8.6-3.68c-3.38,0-6.25,1.21-8.6,3.63
			c-2.35,2.42-3.53,5.75-3.53,9.99c0,4.24,1.18,7.61,3.53,10.09c2.35,2.49,5.22,3.73,8.6,3.73c3.38,0,6.25-1.23,8.6-3.68
			c2.35-2.45,3.53-5.8,3.53-10.04C557.57,298.86,556.39,295.51,554.04,293.06z"/>
		<path class="st0" d="M642.24,281.07c3.88,4.21,5.82,9.99,5.82,17.35v32.42h-16.9v-30.13c0-3.71-0.96-6.6-2.88-8.65
			c-1.92-2.05-4.51-3.08-7.76-3.08c-3.25,0-5.83,1.03-7.76,3.08c-1.92,2.06-2.88,4.94-2.88,8.65v30.13h-17v-55.49h17v7.36
			c1.72-2.45,4.04-4.39,6.96-5.82c2.92-1.42,6.2-2.14,9.84-2.14C633.17,274.76,638.36,276.86,642.24,281.07z"/>
		<path class="st0" d="M715.23,281.07c3.88,4.21,5.82,9.99,5.82,17.35v32.42h-16.9v-30.13c0-3.71-0.96-6.6-2.88-8.65
			c-1.92-2.05-4.51-3.08-7.76-3.08c-3.25,0-5.83,1.03-7.76,3.08c-1.92,2.06-2.88,4.94-2.88,8.65v30.13h-17v-55.49h17v7.36
			c1.72-2.45,4.04-4.39,6.96-5.82c2.92-1.42,6.2-2.14,9.84-2.14C706.16,274.76,711.35,276.86,715.23,281.07z"/>
		<path class="st0" d="M790.85,307.18h-38.48c0.26,3.45,1.38,6.08,3.33,7.91c1.95,1.82,4.36,2.73,7.21,2.73
			c4.24,0,7.19-1.79,8.85-5.37h18.1c-0.93,3.65-2.6,6.93-5.02,9.85c-2.42,2.92-5.45,5.2-9.1,6.86c-3.65,1.66-7.72,2.49-12.23,2.49
			c-5.44,0-10.28-1.16-14.52-3.48c-4.24-2.32-7.56-5.63-9.94-9.94c-2.39-4.31-3.58-9.35-3.58-15.11c0-5.77,1.18-10.8,3.53-15.11
			c2.35-4.31,5.65-7.62,9.89-9.94c4.24-2.32,9.11-3.48,14.62-3.48c5.37,0,10.14,1.13,14.32,3.38c4.18,2.25,7.44,5.47,9.79,9.65
			c2.35,4.18,3.53,9.05,3.53,14.62C791.15,303.8,791.05,305.45,790.85,307.18z M773.75,297.73c0-2.92-0.99-5.24-2.98-6.96
			c-1.99-1.72-4.47-2.59-7.46-2.59c-2.85,0-5.25,0.83-7.21,2.49c-1.96,1.66-3.17,4.01-3.63,7.06H773.75z"/>
		<path class="st0" d="M830.53,277.39c2.98-1.76,6.3-2.63,9.94-2.63v18h-4.67c-4.24,0-7.43,0.91-9.55,2.73
			c-2.12,1.82-3.18,5.02-3.18,9.6v25.75h-17v-55.49h17v9.25C825.06,281.56,827.54,279.15,830.53,277.39z"/>
	</g>
</g>
<g id="Chien">
	<g>
		<g>
			<g>
				<path class="st0" d="M101.08,357.52l-0.01,0.01L101.08,357.52C101.08,357.52,101.08,357.52,101.08,357.52z"/>
				<path class="st0" d="M82.22,352.18L82.22,352.18c0.12,0.15,0.23,0.31,0.35,0.46C82.45,352.49,82.34,352.33,82.22,352.18z
					 M85.2,356.22c0.04,0.06,0.08,0.11,0.12,0.16c0,0,0,0,0,0c0,0,0,0,0,0C85.28,356.33,85.24,356.27,85.2,356.22z M86.71,358.35
					c-0.01-0.01-0.01-0.02-0.02-0.03C86.7,358.33,86.7,358.34,86.71,358.35c0.09,0.13,0.17,0.25,0.26,0.38
					C86.89,358.61,86.8,358.48,86.71,358.35z M88.79,361.4c-0.07-0.11-0.14-0.22-0.22-0.32C88.64,361.18,88.71,361.29,88.79,361.4
					c0.01,0.01,0.02,0.03,0.03,0.05C88.81,361.43,88.8,361.41,88.79,361.4z M94.1,369.92C94.09,369.92,94.09,369.92,94.1,369.92
					c-0.01-0.02-0.02-0.03-0.03-0.04C94.08,369.9,94.08,369.91,94.1,369.92C94.09,369.92,94.1,369.93,94.1,369.92
					C94.1,369.93,94.1,369.93,94.1,369.92z M117.6,361.74c-0.4,0.14-0.79,0.28-1.18,0.42C116.8,362.02,117.19,361.88,117.6,361.74
					L117.6,361.74L117.6,361.74z M127.59,358.2c0.04-0.01,0.07-0.02,0.11-0.04c0.22-0.08,0.43-0.15,0.65-0.23
					C128.09,358.02,127.84,358.11,127.59,358.2z M161.78,346.09c-0.69,0.25-1.38,0.49-2.06,0.74
					C160.4,346.58,161.09,346.34,161.78,346.09c0.91-0.32,1.82-0.64,2.76-0.97C163.6,345.44,162.69,345.77,161.78,346.09z
					 M153.29,349.1c0.79-0.28,1.6-0.57,2.42-0.86C154.89,348.53,154.09,348.82,153.29,349.1z M146.81,351.39
					C146.81,351.39,146.81,351.39,146.81,351.39c0.16-0.06,0.33-0.11,0.49-0.17C147.13,351.28,146.97,351.33,146.81,351.39z"/>
			</g>
			<path class="st0" d="M153.29,349.1c0.79-0.28,1.6-0.57,2.42-0.86C154.89,348.53,154.09,348.82,153.29,349.1z M153.29,349.1
				c0.79-0.28,1.6-0.57,2.42-0.86C154.89,348.53,154.09,348.82,153.29,349.1z M40.32,317.41L40.32,317.41
				C40.32,317.41,40.31,317.41,40.32,317.41c0.1,0.04,0.2,0.08,0.31,0.12c0.38,0.14,0.76,0.28,1.14,0.43
				C41.29,317.76,40.81,317.58,40.32,317.41z M44.17,318.95c0.63,0.28,1.27,0.58,1.9,0.88C45.43,319.52,44.8,319.23,44.17,318.95z
				 M55.17,325.22c-0.29-0.2-0.58-0.4-0.88-0.6C54.59,324.82,54.88,325.02,55.17,325.22c0.08,0.06,0.16,0.11,0.24,0.17
				C55.33,325.33,55.25,325.28,55.17,325.22z M153.29,349.1c0.79-0.28,1.6-0.57,2.42-0.86C154.89,348.53,154.09,348.82,153.29,349.1
				z"/>
		</g>
		<path class="st0" d="M41.77,317.95c-0.38-0.15-0.76-0.29-1.14-0.43c-0.1-0.04-0.21-0.08-0.32-0.12v0c0,0,0,0,0.01,0h0
			C40.81,317.58,41.29,317.76,41.77,317.95z"/>
		<path class="st0" d="M46.06,319.83c-0.63-0.31-1.26-0.6-1.9-0.88C44.8,319.23,45.43,319.52,46.06,319.83z"/>
		<path class="st0" d="M55.41,325.39c-0.08-0.06-0.16-0.11-0.24-0.17c-0.29-0.2-0.58-0.4-0.88-0.6c0.3,0.19,0.59,0.4,0.88,0.6
			C55.25,325.28,55.33,325.33,55.41,325.39z"/>
		<polygon class="st0" points="85.32,356.38 85.32,356.38 85.32,356.38 		"/>
		<path class="st0" d="M86.98,358.73c-0.09-0.13-0.18-0.25-0.27-0.38h0C86.8,358.48,86.89,358.61,86.98,358.73z"/>
		<path class="st0" d="M88.82,361.44c-0.01-0.01-0.02-0.03-0.03-0.05h0C88.8,361.41,88.81,361.43,88.82,361.44z"/>
		<path class="st0" d="M94.09,369.91C94.09,369.92,94.09,369.92,94.09,369.91c-0.01-0.01-0.01-0.02-0.02-0.03
			C94.08,369.89,94.08,369.9,94.09,369.91z"/>
		<polygon class="st0" points="94.1,369.93 94.09,369.92 94.1,369.92 		"/>
		<g>
			<g>
				<path class="st0" d="M169.07,340.8c-1.65-7.42-5.5-12.25-10.02-12.59c-0.1-0.01-0.21-0.02-0.32-0.02c-0.02,0-0.04,0-0.06,0
					c-0.05,0-0.11,0-0.16,0c-0.17,0-0.33,0.01-0.49,0.02c-2.27,0.16-4.4,1.44-6.18,3.69l-3.07,1l-10.49,3.42
					c-0.82-0.32-1.67-0.48-2.55-0.48c-2.36,0-4.57,1.21-6.41,3.4l-16.93,5.52c-0.27-0.03-0.55-0.05-0.83-0.05
					c-1.95,0-3.74,0.71-5.3,2.05l-20.31,6.62c4.57,6.2,7.74,11.36,9.24,13.88c2.45-0.85,8.27-2.91,22.06-7.79
					c0.01,0,0.01,0,0.02-0.01c0.13,0.68,0.24,1.42,0.34,2.2c0,0.03,0.01,0.06,0.01,0.09h0l0,0c-0.4,0.14-0.79,0.28-1.18,0.42
					c0,0,0,0,0,0c-0.35,0.12-0.68,0.24-1.02,0.36c-0.17,0.06-0.33,0.12-0.49,0.17c-0.33,0.12-0.65,0.23-0.97,0.34l0,0
					c-0.32,0.11-0.63,0.22-0.93,0.33c-0.77,0.27-1.51,0.54-2.22,0.79c-0.28,0.1-0.56,0.2-0.83,0.29l0,0
					c-0.27,0.1-0.54,0.19-0.81,0.29c-0.53,0.19-1.04,0.37-1.53,0.54c-0.24,0.09-0.48,0.17-0.72,0.25c-0.83,0.3-1.61,0.57-2.33,0.82
					c-0.26,0.09-0.51,0.18-0.75,0.26c-0.05,0.02-0.1,0.04-0.16,0.06c-0.29,0.1-0.58,0.2-0.85,0.3c-1.05,0.38-1.98,0.7-2.79,0.99
					c-0.07,0.03-0.14,0.05-0.2,0.07c-0.01,0-0.02,0.01-0.02,0.01c-0.03,0.01-0.05,0.02-0.08,0.03c-0.01,0-0.01,0.01-0.02,0.01
					c-0.09,0.04-0.19,0.07-0.28,0.1c-0.13,0.05-0.26,0.09-0.38,0.14c-0.08,0.03-0.16,0.06-0.24,0.09c-0.2,0.07-0.39,0.14-0.57,0.2
					c-0.11,0.04-0.22,0.08-0.32,0.12c-0.68,0.24-1.24,0.44-1.7,0.6c-0.12,0.04-0.24,0.09-0.35,0.12c-0.28,0.1-0.51,0.18-0.7,0.25
					c-0.08,0.03-0.15,0.05-0.21,0.07c-0.06,0.03-0.12,0.05-0.18,0.06c-0.04,0.01-0.08,0.03-0.12,0.04
					c-0.06,0.02-0.12,0.04-0.17,0.06c-0.03,0.01-0.06,0.02-0.08,0.03c-0.06,0.02-0.11,0.04-0.14,0.05c-0.01,0-0.02,0.01-0.03,0.01
					c-0.02,0.01-0.04,0.01-0.05,0.02c0,0-0.01,0-0.01,0c-0.01,0-0.01,0-0.01,0s-0.01-0.02-0.03-0.05c-0.01-0.01-0.01-0.02-0.02-0.04
					c0,0-0.01-0.01-0.01-0.01c-0.01-0.01-0.01-0.02-0.02-0.04c-0.06-0.12-0.17-0.29-0.3-0.53c-0.04-0.06-0.08-0.14-0.12-0.21
					c-0.04-0.06-0.07-0.13-0.12-0.19c-0.03-0.05-0.06-0.1-0.09-0.15c-0.03-0.05-0.06-0.11-0.1-0.17c-0.07-0.11-0.14-0.23-0.21-0.35
					c-0.06-0.11-0.13-0.22-0.21-0.34c-0.02-0.04-0.04-0.07-0.06-0.11c-0.03-0.05-0.06-0.1-0.09-0.15c-0.02-0.04-0.04-0.07-0.06-0.11
					c-0.06-0.11-0.13-0.22-0.2-0.34c-0.09-0.15-0.19-0.31-0.29-0.48c-0.1-0.17-0.21-0.34-0.32-0.51c-0.08-0.13-0.17-0.27-0.25-0.4
					c-0.09-0.14-0.17-0.28-0.27-0.43c-0.12-0.19-0.25-0.39-0.37-0.59c-0.11-0.17-0.22-0.35-0.34-0.54c-0.09-0.13-0.17-0.27-0.26-0.4
					c-0.09-0.15-0.19-0.3-0.29-0.45c-0.19-0.29-0.38-0.59-0.58-0.9c-0.15-0.23-0.31-0.47-0.47-0.71c-0.08-0.12-0.16-0.24-0.24-0.36
					c-0.01-0.01-0.02-0.03-0.03-0.05c-0.07-0.11-0.14-0.22-0.22-0.32c-0.17-0.25-0.34-0.5-0.51-0.76c-0.35-0.51-0.71-1.04-1.08-1.58
					c-0.09-0.13-0.18-0.25-0.27-0.38c-0.01-0.01-0.01-0.02-0.02-0.03c-0.29-0.41-0.58-0.83-0.88-1.25c-0.1-0.14-0.2-0.28-0.3-0.43
					c-0.06-0.09-0.12-0.18-0.19-0.27c0,0,0,0,0,0c-0.04-0.05-0.08-0.11-0.12-0.16c-0.19-0.27-0.39-0.55-0.59-0.82
					c-0.04-0.05-0.07-0.1-0.11-0.14c-0.15-0.21-0.31-0.42-0.47-0.64c-0.48-0.65-0.97-1.3-1.47-1.97c-0.12-0.15-0.23-0.31-0.35-0.46
					c-0.43-0.56-0.86-1.12-1.3-1.69c-0.22-0.28-0.45-0.57-0.67-0.85c-0.23-0.29-0.46-0.58-0.69-0.86c-0.46-0.58-0.94-1.16-1.42-1.74
					c-0.48-0.58-0.97-1.17-1.47-1.76c-0.25-0.3-0.5-0.59-0.76-0.89c-0.29-0.33-0.58-0.66-0.87-1c-0.23-0.26-0.45-0.52-0.69-0.77
					c-0.73-0.82-1.47-1.63-2.23-2.45c-0.11-0.12-0.22-0.24-0.34-0.36c-0.11-0.12-0.23-0.24-0.34-0.36
					c-0.21-0.22-0.42-0.44-0.63-0.66c-0.47-0.49-0.95-0.98-1.43-1.46c-0.29-0.29-0.58-0.58-0.87-0.87c-0.25-0.25-0.5-0.5-0.76-0.74
					c-0.26-0.25-0.51-0.5-0.77-0.74c-0.14-0.13-0.27-0.26-0.41-0.39c-0.55-0.52-1.1-1.03-1.66-1.54c-0.31-0.28-0.62-0.56-0.93-0.84
					c-0.28-0.25-0.56-0.49-0.84-0.74c-0.04-0.03-0.07-0.06-0.1-0.09c-0.29-0.25-0.58-0.51-0.88-0.76c-0.08-0.06-0.16-0.13-0.24-0.2
					c-0.22-0.19-0.45-0.38-0.67-0.56c-0.29-0.24-0.58-0.48-0.87-0.71c-0.18-0.15-0.36-0.29-0.54-0.43
					c-0.53-0.43-1.08-0.85-1.62-1.27l-0.43-0.33c-0.18-0.14-0.36-0.27-0.54-0.4c-0.61-0.45-1.23-0.89-1.85-1.33
					c-0.08-0.06-0.16-0.11-0.24-0.17c-0.29-0.2-0.58-0.4-0.88-0.6c-0.34-0.23-0.69-0.46-1.03-0.68c-0.32-0.21-0.65-0.42-0.98-0.63
					c-0.02-0.02-0.05-0.03-0.07-0.05c-0.2-0.13-0.4-0.25-0.61-0.38c-0.62-0.38-1.24-0.75-1.87-1.11c-0.29-0.17-0.58-0.33-0.88-0.49
					c-0.3-0.16-0.59-0.32-0.89-0.48c-0.03-0.02-0.06-0.03-0.09-0.05c-0.29-0.16-0.59-0.31-0.88-0.46c-0.31-0.16-0.62-0.32-0.94-0.47
					c-0.63-0.31-1.26-0.6-1.9-0.88c-0.22-0.1-0.45-0.2-0.68-0.3c-0.33-0.14-0.66-0.28-1-0.41c-0.24-0.1-0.48-0.19-0.72-0.29
					c-0.38-0.15-0.76-0.29-1.14-0.43c-0.1-0.04-0.21-0.08-0.32-0.12v12.23c17.31,6.12,32.2,23.67,41.9,36.4
					c7.53,9.88,11.93,17.84,11.93,17.84s0.43-0.14,9.25-3.26l0.03,0.06c2.14,3.92,5.03,6.08,8.12,6.08c4.76,0,8.8-4.8,10.54-12.52
					c0.02-0.08,0.04-0.17,0.06-0.25c1.79-0.63,3.7-1.31,5.74-2.03l0.03,0.06c2.16,3.84,4.85,5.87,7.8,5.87
					c4.67,0,8.68-4.66,10.47-12.17c0.02-0.09,0.04-0.17,0.06-0.26c1.29-0.45,2.61-0.93,3.97-1.41l0.03,0.06
					c2.13,3.9,5.14,6.13,8.26,6.13c5.16,0,9.45-5.65,10.91-14.39c0.36-2.11,0.54-4.35,0.54-6.65
					C169.96,346.25,169.66,343.42,169.07,340.8z M101.07,357.53l0.01-0.01c0,0,0,0,0.01,0.01L101.07,357.53z M116.12,376.13
					c-1.23,3.32-3.01,5.45-4.57,5.45c-1.04,0-2.22-0.97-3.25-2.68C110.53,378.11,113.12,377.19,116.12,376.13z M121.66,372.24
					c-0.1,0.61-0.22,1.23-0.36,1.83c-0.02,0.08-0.04,0.17-0.06,0.25c-1.68,7.18-5.38,11.63-9.69,11.63c-2.67,0-5.21-1.86-7.17-5.24
					c1.01-0.35,2.12-0.75,3.35-1.18c1.17,1.85,2.52,2.87,3.82,2.87c2.02,0,4.06-2.36,5.45-6.31c0.04-0.1,0.07-0.21,0.1-0.31
					c0.13-0.38,0.25-0.78,0.37-1.17c0.76-2.67,1.16-5.74,1.16-8.89c0-1.44-0.08-2.84-0.24-4.18c0-0.03-0.01-0.06-0.01-0.09
					c0,0,0,0,0-0.01c-0.1-0.8-0.22-1.57-0.36-2.28c0-0.01,0-0.02-0.01-0.04c-1.16-5.93-3.82-10.08-6.47-10.08
					c-2.24,0-4.26,2.26-5.54,6.2c-0.04,0.12-0.08,0.25-0.12,0.39l-0.44,1.73c-0.33,0.36-0.79,0.65-1.31,0.81
					c-1.13,0.35-2.23,0.05-2.61-0.7l0.95-2.63c1.76-5.94,5.07-9.35,9.09-9.35c4.38,0,8.13,4.59,9.78,11.98
					c0.04,0.16,0.07,0.32,0.1,0.48c0.16,0.76,0.28,1.48,0.38,2.19c0,0.03,0.01,0.05,0.01,0.08v0c0.25,1.76,0.37,3.6,0.37,5.48
					C122.19,367.97,122.01,370.17,121.66,372.24z M127.7,358.16c-0.04,0.01-0.07,0.02-0.11,0.04c-0.16,0.06-0.32,0.12-0.47,0.17
					c-0.13,0.05-0.25,0.09-0.38,0.13c-0.03,0.01-0.06,0.02-0.1,0.04c-0.03,0.01-0.06,0.02-0.1,0.04c-0.16,0.06-0.32,0.11-0.47,0.17
					c-0.15,0.06-0.31,0.11-0.46,0.17c-0.25,0.09-0.49,0.17-0.74,0.26c-0.17,0.06-0.34,0.12-0.51,0.18
					c-0.01,0.01-0.02,0.01-0.04,0.01c-0.36,0.13-0.72,0.25-1.07,0.38c-0.22,0.08-0.44,0.15-0.65,0.23c0,0,0,0,0-0.01
					c-0.1-0.74-0.23-1.48-0.4-2.27l2.46-0.87l16.77-5.95l0.03-0.01c0.14,0.74,0.24,1.47,0.32,2.21c0,0.03,0.01,0.06,0.01,0.09v0
					c-0.24,0.09-0.48,0.17-0.72,0.25c-0.43,0.15-0.87,0.31-1.29,0.46c-0.36,0.13-0.72,0.25-1.08,0.38
					c-0.97,0.35-1.93,0.69-2.86,1.02c-0.45,0.16-0.89,0.32-1.33,0.47c-0.12,0.04-0.24,0.09-0.36,0.13c-0.05,0.02-0.1,0.04-0.15,0.05
					c-0.22,0.08-0.44,0.16-0.65,0.23c-0.05,0.02-0.09,0.04-0.14,0.05c-0.22,0.08-0.43,0.15-0.64,0.23
					c-0.64,0.22-1.26,0.45-1.88,0.66c-0.41,0.14-0.82,0.29-1.22,0.43c-0.2,0.07-0.4,0.14-0.6,0.21
					C128.48,357.89,128.08,358.03,127.7,358.16z M140.14,367.62c-1.23,3.15-2.91,5.09-4.43,5.09c-1.05,0-1.93-0.74-2.95-2.47
					C135.09,369.42,137.54,368.55,140.14,367.62z M145.82,363.37c-0.12,0.74-0.27,1.47-0.43,2.16c-0.02,0.09-0.04,0.17-0.06,0.26
					c-1.72,6.97-5.39,11.29-9.61,11.29c-2.57,0-4.87-1.69-6.85-5.03c1.08-0.38,2.18-0.77,3.33-1.18c1.13,1.86,2.19,2.66,3.52,2.66
					c1.94,0,3.93-2.22,5.32-5.94c0.04-0.11,0.08-0.21,0.12-0.32c0.18-0.49,0.34-1,0.49-1.52c0.76-2.67,1.17-5.74,1.17-8.89
					c0-1.33-0.07-2.63-0.21-3.87c0-0.03-0.01-0.06-0.01-0.09c0,0,0,0,0,0c-0.08-0.76-0.19-1.53-0.34-2.3
					c-0.02-0.11-0.04-0.21-0.06-0.32c-1.16-5.93-3.82-10.08-6.47-10.08c-2.15,0-4.43,2.81-5.82,7.16l-0.02,0.06
					c-0.01,0.04-0.03,0.08-0.04,0.12l-0.23,0.87c-0.32,0.5-0.87,0.9-1.54,1.1c-0.86,0.27-1.76,0.14-2.3-0.3
					c0.02-0.1,0.04-0.2,0.06-0.3c0.2-1,0.47-1.86,0.71-2.58c0.04-0.14,0.09-0.27,0.13-0.41l0.06-0.17c1.03-3.08,2.48-5.5,4.19-7.06
					c1.45-1.33,3.08-2.06,4.79-2.06c0.4,0,0.79,0.04,1.17,0.11h0c3.87,0.74,7.1,5.14,8.6,11.87c0.06,0.25,0.11,0.51,0.16,0.76
					c0.14,0.71,0.26,1.44,0.36,2.2c0,0.03,0.01,0.06,0.01,0.08v0c0.22,1.66,0.33,3.4,0.33,5.18
					C146.35,359.1,146.17,361.3,145.82,363.37z M149.55,350.42c-0.38,0.13-0.76,0.27-1.14,0.4c-0.38,0.13-0.75,0.27-1.12,0.4
					c-0.16,0.06-0.33,0.12-0.49,0.17c0,0,0,0,0,0c-0.1-0.78-0.23-1.55-0.38-2.28c4.48-1.58,9.34-3.31,14.59-5.17l1.99-0.71
					l1.16-0.41l0.01,0c0.14,0.73,0.26,1.47,0.35,2.19c0,0.03,0.01,0.06,0.01,0.09v0c-0.93,0.33-1.85,0.66-2.75,0.98
					c-0.7,0.25-1.39,0.49-2.06,0.73h0c-0.68,0.25-1.36,0.48-2.02,0.72c-0.67,0.24-1.33,0.47-1.98,0.7
					c-0.82,0.29-1.62,0.58-2.42,0.86c-0.16,0.05-0.32,0.11-0.48,0.17c-0.32,0.11-0.63,0.22-0.95,0.33
					C151.09,349.88,150.32,350.15,149.55,350.42z M163.12,359.48c-1.24,3.4-3.03,5.58-4.62,5.58c-1.07,0-2.24-0.98-3.3-2.77
					C157.73,361.39,160.37,360.45,163.12,359.48z M168.61,355.73c-0.04,0.25-0.09,0.5-0.13,0.74c-0.08,0.41-0.16,0.82-0.25,1.21
					c-1.65,7.21-5.36,11.76-9.73,11.76c-2.7,0-5.34-1.92-7.31-5.29c1.12-0.4,2.27-0.8,3.43-1.22c1.19,1.91,2.55,2.95,3.87,2.95
					c2.05,0,4.11-2.41,5.5-6.44c0.04-0.1,0.07-0.2,0.1-0.31c0.11-0.33,0.22-0.68,0.32-1.04c0.76-2.67,1.16-5.74,1.16-8.89
					c0-1.48-0.09-2.92-0.25-4.29c0-0.03-0.01-0.06-0.01-0.09c0,0,0,0,0,0c-0.09-0.73-0.21-1.47-0.35-2.21
					c-0.01-0.03-0.01-0.06-0.02-0.08c-0.11-0.55-0.23-1.08-0.36-1.6c0,0,0-0.01,0-0.01c-1.15-4.47-3.19-7.64-5.31-8.27v0
					c-0.26-0.08-0.52-0.12-0.78-0.12c-1.61,0-3.29,1.56-4.61,4.28c-0.41,0.85-0.81,1.85-1.12,2.84l0,0.01
					c-0.01,0.04-0.02,0.07-0.03,0.1l-0.24,0.83c-0.31,0.52-0.87,0.93-1.56,1.14c-0.86,0.27-1.75,0.15-2.3-0.29
					c0.03-0.16,0.06-0.31,0.1-0.47c0.19-0.88,0.38-1.62,0.62-2.38c0.09-0.28,0.18-0.56,0.29-0.86c0.51-1.44,1.1-2.73,1.78-3.85
					c0.59-0.98,1.23-1.81,1.9-2.5h0c1.54-1.58,3.3-2.4,5.17-2.4c0.16,0,0.32,0.01,0.48,0.02c0.13,0.01,0.26,0.02,0.38,0.04
					c0,0,0,0,0,0c4,0.56,7.39,5.08,8.91,11.92c0.58,2.56,0.87,5.32,0.87,8.23C169.14,351.47,168.97,353.66,168.61,355.73z"/>
			</g>
			<g>
				<path class="st0" d="M57,314.12c-1.73,0.4-3.28,0.76-4.67,1.07h-0.01c-0.15,0.03-0.3,0.06-0.44,0.1
					c-0.29,0.06-0.57,0.13-0.84,0.19c-1.38,0.3-2.59,0.56-3.65,0.78c-0.21,0.04-0.42,0.09-0.61,0.12c-0.31,0.06-0.61,0.12-0.89,0.18
					c-0.16,0.03-0.31,0.06-0.45,0.09c-0.02,0.01-0.05,0.01-0.07,0.01c-0.14,0.03-0.28,0.06-0.42,0.08
					c-0.01,0.01-0.03,0.01-0.04,0.01c-0.16,0.03-0.31,0.06-0.46,0.09c-0.01,0-0.02,0.01-0.03,0.01c-0.17,0.03-0.33,0.06-0.49,0.09
					c-0.17,0.03-0.34,0.06-0.5,0.09c-0.16,0.03-0.32,0.05-0.46,0.08c-0.08,0.01-0.16,0.03-0.23,0.04c-0.05,0.01-0.1,0.02-0.15,0.02
					c-0.06,0.01-0.12,0.02-0.18,0.03c-0.08,0.01-0.15,0.02-0.22,0.04c-0.24,0.04-0.45,0.07-0.64,0.09c-0.03,0-0.06,0.01-0.09,0.01
					c-0.04,0.01-0.08,0.01-0.11,0.01c-0.05,0.01-0.1,0.01-0.15,0.02c-0.11,0.01-0.2,0.02-0.28,0.03c-0.02,0-0.04,0.01-0.06,0.01
					c-0.34,0.03-0.48,0.03-0.51,0.03c3.89-1.16,7.59-2.27,11.09-3.3c1.4-0.42,2.78-0.83,4.12-1.23C56,313.31,56.49,313.72,57,314.12
					z"/>
				<path class="st0" d="M158.02,327.41c-1.31-1.15-29.44-25.91-39.74-29.28c-1.57,0.43-3.12,0.87-4.62,1.27
					c-1.43,0.39-2.84,0.78-4.21,1.15c0-0.01,0-0.04,0.01-0.05c0.08-0.32,0.16-0.63,0.23-0.95c0.07-0.31,0.12-0.6,0.18-0.91
					c0.06-0.35,0.11-0.71,0.16-1.06c0.02-0.16,0.04-0.32,0.06-0.48c0.01-0.16,0.03-0.32,0.04-0.48h0.01
					c1.3-0.39,2.34-0.71,3.22-0.96h0.01c0,0,0.01,0,0.01,0c4.01-1.2,4.01-1.2,4.01-1.2S141.89,308.14,158.02,327.41z"/>
			</g>
		</g>
		<path class="st0" d="M101.08,357.52l-0.01,0.01L101.08,357.52C101.08,357.52,101.08,357.52,101.08,357.52z"/>
		<path class="st0" d="M101.08,357.52l-0.01,0.01L101.08,357.52C101.08,357.52,101.08,357.52,101.08,357.52z"/>
		<g>
			<path class="st0" d="M113.43,296.13c-0.01-0.15-0.03-0.3-0.05-0.46c-0.07-0.65-0.18-1.3-0.3-1.94c-0.23-1.38-0.81-3.15-1.57-4.82
				c0.22,0.53,0.42,1.06,0.6,1.61l0,0c0.06,0.19,0.13,0.38,0.19,0.57c0.01,0.04,0.03,0.08,0.04,0.12c0,0.01,0.01,0.03,0.01,0.04
				c0.06,0.18,0.11,0.36,0.17,0.55c0,0,0,0,0,0.01c0.04,0.14,0.08,0.28,0.12,0.43c0.01,0.01,0.01,0.04,0.01,0.05v0.01
				c0.08,0.28,0.15,0.56,0.21,0.84c0.03,0.14,0.06,0.28,0.1,0.42c0.03,0.13,0.06,0.25,0.09,0.38c0.01,0.03,0.01,0.07,0.02,0.1
				c0.03,0.12,0.05,0.25,0.07,0.37c0.09,0.43,0.16,0.85,0.22,1.28c0.01,0.03,0.01,0.06,0.01,0.09c0,0.01,0.01,0.02,0.01,0.03
				c0.02,0.14,0.04,0.28,0.06,0.42C113.43,296.19,113.43,296.16,113.43,296.13z"/>
			<path class="st0" d="M113.58,297.58c-0.03-0.45-0.08-0.9-0.14-1.34v-0.01c0-0.03-0.01-0.06-0.01-0.09c0,0.03,0.01,0.06,0.01,0.09
				c-0.02-0.14-0.04-0.28-0.06-0.42c0-0.01,0-0.02-0.01-0.03c0-0.03-0.01-0.06-0.01-0.09c-0.06-0.43-0.14-0.86-0.22-1.28
				c-0.02-0.12-0.05-0.25-0.07-0.37c-0.01-0.03-0.01-0.06-0.02-0.1c-0.03-0.13-0.06-0.25-0.09-0.38c-0.03-0.14-0.06-0.28-0.1-0.42
				c-0.07-0.28-0.14-0.56-0.22-0.83v-0.01c0-0.02,0-0.04-0.01-0.05c-0.04-0.14-0.08-0.29-0.12-0.43c0,0,0-0.01,0-0.01
				c-0.05-0.18-0.11-0.37-0.17-0.55c0-0.01-0.01-0.03-0.01-0.04c-0.01-0.04-0.03-0.08-0.04-0.12c-0.06-0.19-0.12-0.38-0.19-0.57
				c-0.18-0.55-0.39-1.08-0.6-1.61c-0.02-0.07-0.06-0.11-0.08-0.17c-0.42-0.83-0.93-1.32-1.42-2.04l-0.35-0.24
				c-0.2-0.09-0.4-0.18-0.6-0.28c-2.6-1.24-5.04-2.78-7.29-4.58v0.05c-0.11-0.1-0.23-0.21-0.34-0.32c0.11,0.1,0.23,0.19,0.34,0.27
				c0.51-5.04,0.07-10.08-0.65-15.06c-0.81-5.28-1.99-10.5-3.51-15.63c-0.92-3.07-1.95-6.14-3.15-9.12
				c-0.51-1.22-1.08-2.46-1.93-3.5c-4.35-4.77-11.6-4.95-17.49-3.21c-0.34-0.25-0.68-0.5-1.02-0.74c-0.33-0.24-0.68-0.47-1.02-0.69
				c-6.08-3.99-13.28-6.26-20.56-6.54c-2.55-0.09-5.14,0.06-7.67,0.4c-12.64,1.74-24.21,9.84-29.82,21.24
				c-7.61,3.48-14.04,9.8-12.69,18.86c0.89,6.95,1.18,13.9,1.89,20.88c1.13,9.71,2.5,27.51,12.94,31.79l0.55,0.23l0.63-0.01
				c7.31-0.28,13.06-8.63,17.19-17.07c3.4,4.18,7.98,7.4,12.95,9.48c0.97,0.4,1.95,0.76,2.94,1.1c0.04,0.03,0.06,0.08,0.09,0.11
				c0.3,0.38,0.61,0.73,0.91,1.08h0.01c5.18,5.85,13.03,9.29,20.87,8.79c8.01-0.38,15.54-4.79,20.09-11.34
				c0.79,0.83,1.67,1.57,2.68,2.16c2.55,1.54,5.28,1.73,7.76,0.93c3.53-1.03,6.42-3.94,7.96-7.16c1.42-2.87,1.98-6.02,1.96-9.17
				C113.66,298.79,113.63,298.18,113.58,297.58z M87.7,239.47c0.69,0.44,1.26,1.01,1.89,1.55c1.1,0.94,2.1,2.03,2.61,3.41
				c3.03,7.21,5.34,14.77,6.7,22.48c0.73,4.26,1.22,8.64,0.98,12.97c0.49,0.48,0.98,0.96,1.48,1.41c-0.45-0.36-0.91-0.75-1.36-1.15
				c-0.65-0.57-1.27-1.16-1.89-1.78c-0.82-0.83-1.6-1.68-2.36-2.57c-2.34-2.8-4.46-5.85-6.11-9.11c0.01-0.24,0.02-0.5,0.04-0.68
				c0.87-10.91-4.09-21.7-12.19-28.91C81.1,237,84.69,237.49,87.7,239.47z M110.14,296.63c-0.02,0.16-0.04,0.32-0.05,0.48
				c-0.02,0.16-0.04,0.32-0.06,0.48c-0.05,0.35-0.1,0.71-0.16,1.06c-0.06,0.31-0.12,0.6-0.18,0.91c-0.07,0.32-0.15,0.63-0.23,0.95
				c-0.01,0.01-0.01,0.04-0.01,0.05c-0.01,0.01-0.01,0.03-0.01,0.04c-0.08,0.29-0.16,0.57-0.25,0.84c-0.06,0.18-0.11,0.36-0.17,0.55
				c-0.09,0.27-0.18,0.53-0.28,0.8c-0.17,0.43-0.34,0.85-0.52,1.26c-0.1,0.24-0.22,0.47-0.33,0.69c-0.04,0.07-0.07,0.14-0.1,0.19
				c-0.1,0.21-0.2,0.41-0.33,0.61c-0.48,0.87-1.01,1.67-1.6,2.4c-0.16,0.19-0.32,0.38-0.49,0.56c-0.09,0.09-0.17,0.18-0.26,0.27
				c-0.26,0.27-0.53,0.52-0.82,0.76c-0.08,0.08-0.17,0.15-0.26,0.2c-0.16,0.14-0.33,0.27-0.51,0.39c-0.23,0.16-0.47,0.32-0.72,0.45
				c-0.22,0.14-0.44,0.25-0.68,0.34c-0.02,0.02-0.04,0.04-0.07,0.04c-0.23,0.1-0.45,0.19-0.69,0.27c-1.72,0.68-3.72-0.46-5.23-1.99
				c-0.1-0.1-0.2-0.21-0.3-0.32c-0.3-0.31-0.56-0.64-0.8-0.97c0.27-0.53,0.53-1.08,0.76-1.63c0.1-0.23,0.21-0.47,0.3-0.71
				c0.23-0.53,0.42-1.07,0.62-1.62c0.15-0.47,0.3-0.93,0.43-1.4c1.28-0.69,8.07-4.7,6.3-11.52c0-0.01,0-0.01,0-0.02
				c-0.17-0.66-0.96-0.96-1.55-0.59c-1.3,0.79-3.05,1.51-4.94,2.15c-2.37,0.8-4.98,1.46-7.23,1.97c-2.01,0.46-3.76,0.79-4.81,0.97
				c-0.6,0.12-0.98,0.71-0.82,1.3c0.97,3.59,3.27,5.22,5.67,5.9c0.2,0.06,0.42,0.12,0.64,0.15c-0.04,0.14-0.08,0.29-0.13,0.42
				c-0.31,0.91-0.67,1.81-1.09,2.69c-0.02,0.03-0.04,0.08-0.06,0.11c-0.17,0.37-0.37,0.73-0.56,1.08c-0.18,0.34-0.39,0.68-0.59,1.01
				c-0.41,0.67-0.85,1.31-1.32,1.92c-0.16,0.21-0.32,0.4-0.48,0.59c-0.17,0.22-0.35,0.43-0.55,0.65c-0.08,0.1-0.17,0.19-0.25,0.29
				c-0.09,0.1-0.19,0.2-0.28,0.29c-0.02,0.05-0.06,0.08-0.1,0.12c-0.17,0.18-0.35,0.36-0.53,0.55c-0.6,0.59-1.24,1.15-1.91,1.67
				c-1.81,1.42-3.84,2.5-5.98,3.23c-0.19,0.07-0.38,0.12-0.56,0.18c-0.16,0.06-0.32,0.1-0.48,0.14c-0.71,0.2-1.41,0.36-2.13,0.49
				c-0.08,0.01-0.17,0.02-0.25,0.05c-2.39,0.38-4.84,0.34-7.23-0.14c-0.33-0.06-0.66-0.14-0.98-0.22c-0.1-0.03-0.2-0.05-0.3-0.08
				c-0.22-0.06-0.44-0.12-0.66-0.19h0c-0.05-0.01-0.1-0.03-0.14-0.05c-0.02-0.01-0.05-0.01-0.07-0.03c-0.01,0-0.01,0-0.02-0.01
				c-0.01,0-0.01,0-0.01,0c-0.06-0.02-0.12-0.04-0.18-0.06c-0.14-0.04-0.27-0.09-0.41-0.14c-0.2-0.07-0.4-0.15-0.59-0.22
				c-0.16-0.06-0.32-0.13-0.47-0.19c-0.19-0.08-0.4-0.17-0.59-0.26c-0.11-0.04-0.23-0.1-0.34-0.16c-0.22-0.09-0.42-0.19-0.63-0.31
				c-0.28-0.14-0.56-0.28-0.82-0.44c-0.21-0.12-0.4-0.23-0.59-0.35c-0.34-0.19-0.66-0.41-0.98-0.63c-0.32-0.22-0.61-0.43-0.91-0.67
				c-0.06-0.04-0.11-0.08-0.16-0.12c-0.51-0.4-1-0.81-1.47-1.24c-4.61-4.29-7.3-10.42-7.71-16.74l-2.19-1.7l0.07,1.53
				c0.08,2.93,0.59,5.84,1.55,8.63c0.23,1.36,1.58,4.36,2.66,6.6c-5.24-2.09-10.08-5.47-13.46-9.95c1.9-4.14,3.4-8.15,4.5-11.05
				c1.39-3.84,2.64-7.66,3.76-11.62l0.04-0.15l0.01-0.08c0.17-1.47,0.05-2.89-0.12-4.34c-0.44-3.33-1.47-6.54-2.78-9.61l-0.81-1.8
				c-0.85-1.73-3.39-0.66-2.74,1.15l0.01,0.06l0.67,1.73c1.34,3.84,2.42,7.96,2.01,12.05c-0.89,2.61-2.76,7.64-4.2,10.99
				c-0.89,2.05-2.04,4.65-3.39,7.43c-0.39,0.8-0.8,1.63-1.23,2.45c-3.35,6.49-7.68,13.21-12.32,15.33c-0.38,0.16-0.73,0.25-1.07,0.3
				c-6.61-3.36-8.56-19.43-9.6-26.2c-0.87-6.25-1.47-12.62-2.38-18.88c-0.03-0.21-0.25-1.61-0.28-1.74
				c-0.38-1.81-0.38-3.7,0.12-5.45c0.94-3.2,3.28-5.81,6.21-7.88c1.65-1.16,3.49-2.16,5.38-3.01c2.84-1.26,5.76-2.19,8.3-2.8
				c0.8-0.16,1.33-0.92,1.18-1.73c-0.15-0.81-0.92-1.34-1.73-1.21c-0.97,0.18-1.84,0.39-2.78,0.62c-0.79,0.2-1.57,0.43-2.36,0.67
				c3.21-4.59,7.71-8.57,13.52-11.46c14.03-6.93,31.78-4.29,42.9,6.81c6.4,6.26,10.25,15.13,10.19,24.11l-0.01,0.75l0.28,0.98
				c0.07,0.16,0.12,0.32,0.19,0.48c2.48,5.75,6.36,10.84,11.18,14.83c2.89,2.38,6.2,4.28,9.75,5.51c0.59,1.35,0.99,2.79,1.2,4.26
				C110.22,293.94,110.25,295.25,110.14,296.63z"/>
			<path class="st0" d="M101.76,281.6v0.05c-0.11-0.1-0.23-0.21-0.34-0.32C101.53,281.43,101.64,281.52,101.76,281.6z"/>
			<path class="st0" d="M88.54,307.21c-0.18,0.34-0.39,0.68-0.59,1.01C88.15,307.89,88.34,307.55,88.54,307.21z"/>
			<path class="st0" d="M101.76,281.6v0.05c-0.11-0.1-0.23-0.21-0.34-0.32C101.53,281.43,101.64,281.52,101.76,281.6z"/>
			<path class="st0" d="M113.44,296.22c-0.02-0.14-0.04-0.28-0.06-0.42c0.02,0.11,0.03,0.22,0.05,0.33
				C113.43,296.16,113.43,296.19,113.44,296.22z"/>
			<path class="st0" d="M56.4,273.99c-3.37,1.1-7.39-1.98-8.98-6.88c-1.59-4.91-0.17-9.76,3.2-10.87c3.36-1.09,7.38,1.99,8.98,6.89
				C61.18,268.04,59.76,272.9,56.4,273.99z"/>
			<path class="st0" d="M80.24,267.93c-2.97,0.45-5.93-2.86-6.62-7.38c-0.69-4.52,1.16-8.55,4.13-9.01
				c2.97-0.44,5.93,2.86,6.62,7.38C85.05,263.46,83.21,267.49,80.24,267.93z"/>
			<path class="st0" d="M87.94,308.22c0.21-0.33,0.41-0.67,0.59-1.01C88.34,307.55,88.15,307.89,87.94,308.22z"/>
		</g>
	</g>
</g>
</svg>
