<?xml version="1.0" encoding="utf-8"?>
<!-- Generator: Adobe Illustrator 26.3.1, SVG Export Plug-In . SVG Version: 6.00 Build 0)  -->
<svg version="1.1" xmlns="http://www.w3.org/2000/svg" xmlns:xlink="http://www.w3.org/1999/xlink" x="0px" y="0px"
	 viewBox="0 0 841.89 595.28" style="enable-background:new 0 0 841.89 595.28;" xml:space="preserve">
<style type="text/css">
	.st0{fill:#F9F4E6;}
</style>
<g id="PawPlanner">
	<g>
		<path class="st0" d="M66.09,415.89c-2.36,4.26-6,7.71-10.89,10.32c-4.9,2.62-10.98,3.93-18.24,3.93H23.53v31.92H1.88v-88.92h35.09
			c7.09,0,13.09,1.22,17.99,3.67c4.9,2.45,8.57,5.83,11.02,10.13c2.45,4.31,3.67,9.25,3.67,14.82
			C69.64,406.91,68.46,411.62,66.09,415.89z M44.56,410c2.03-1.94,3.04-4.69,3.04-8.23c0-3.55-1.01-6.29-3.04-8.23
			c-2.03-1.94-5.11-2.91-9.25-2.91H23.53v22.29h11.78C39.45,412.91,42.53,411.94,44.56,410z"/>
		<path class="st0" d="M88.32,407.46c2.74-5.49,6.48-9.71,11.21-12.67c4.73-2.96,10.01-4.43,15.83-4.43c4.98,0,9.35,1.01,13.11,3.04
			c3.76,2.03,6.65,4.69,8.68,7.98v-10.01h21.66v70.68h-21.66v-10.01c-2.11,3.29-5.05,5.95-8.8,7.98c-3.76,2.03-8.13,3.04-13.11,3.04
			c-5.74,0-10.98-1.5-15.71-4.5c-4.73-3-8.47-7.26-11.21-12.79c-2.74-5.53-4.12-11.93-4.12-19.19
			C84.21,419.33,85.58,412.95,88.32,407.46z M132.65,413.92c-3-3.12-6.65-4.69-10.96-4.69c-4.31,0-7.96,1.54-10.96,4.62
			c-3,3.08-4.5,7.33-4.5,12.73c0,5.4,1.5,9.69,4.5,12.86c3,3.17,6.65,4.75,10.96,4.75c4.31,0,7.96-1.56,10.96-4.69
			c3-3.12,4.5-7.39,4.5-12.79C137.15,421.31,135.65,417.05,132.65,413.92z"/>
		<path class="st0" d="M283.57,391.38l-19.13,70.68h-23.94l-11.15-45.85l-11.53,45.85h-23.81l-19.25-70.68h21.66l10.01,50.54
			l11.91-50.54h22.93l12.03,50.29l9.88-50.29H283.57z"/>
		<path class="st0" d="M363.62,415.89c-2.36,4.26-6,7.71-10.89,10.32c-4.9,2.62-10.98,3.93-18.24,3.93h-13.43v31.92H299.4v-88.92
			h35.08c7.09,0,13.09,1.22,17.99,3.67c4.9,2.45,8.57,5.83,11.02,10.13c2.45,4.31,3.67,9.25,3.67,14.82
			C367.17,406.91,365.99,411.62,363.62,415.89z M342.09,410c2.03-1.94,3.04-4.69,3.04-8.23c0-3.55-1.01-6.29-3.04-8.23
			c-2.03-1.94-5.11-2.91-9.25-2.91h-11.78v22.29h11.78C336.98,412.91,340.06,411.94,342.09,410z"/>
		<path class="st0" d="M407.7,368.32v93.73h-21.66v-93.73H407.7z"/>
		<path class="st0" d="M430.82,407.46c2.74-5.49,6.48-9.71,11.21-12.67c4.73-2.96,10.01-4.43,15.83-4.43
			c4.98,0,9.35,1.01,13.11,3.04c3.76,2.03,6.65,4.69,8.68,7.98v-10.01h21.66v70.68h-21.66v-10.01c-2.11,3.29-5.05,5.95-8.8,7.98
			c-3.76,2.03-8.13,3.04-13.11,3.04c-5.74,0-10.98-1.5-15.71-4.5c-4.73-3-8.47-7.26-11.21-12.79c-2.74-5.53-4.12-11.93-4.12-19.19
			C426.7,419.33,428.07,412.95,430.82,407.46z M475.15,413.92c-3-3.12-6.65-4.69-10.96-4.69c-4.31,0-7.96,1.54-10.96,4.62
			c-3,3.08-4.5,7.33-4.5,12.73c0,5.4,1.5,9.69,4.5,12.86c3,3.17,6.65,4.75,10.96,4.75c4.31,0,7.96-1.56,10.96-4.69
			c3-3.12,4.5-7.39,4.5-12.79C479.64,421.31,478.14,417.05,475.15,413.92z"/>
		<path class="st0" d="M587.5,398.66c4.94,5.36,7.41,12.73,7.41,22.1v41.29h-21.53v-38.38c0-4.73-1.22-8.4-3.67-11.02
			c-2.45-2.62-5.74-3.93-9.88-3.93c-4.14,0-7.43,1.31-9.88,3.93c-2.45,2.62-3.67,6.29-3.67,11.02v38.38h-21.66v-70.68h21.66v9.37
			c2.2-3.12,5.15-5.59,8.87-7.41c3.71-1.81,7.89-2.72,12.54-2.72C575.95,390.62,582.56,393.3,587.5,398.66z"/>
		<path class="st0" d="M680.47,398.66c4.94,5.36,7.41,12.73,7.41,22.1v41.29h-21.53v-38.38c0-4.73-1.22-8.4-3.67-11.02
			c-2.45-2.62-5.74-3.93-9.88-3.93c-4.14,0-7.43,1.31-9.88,3.93c-2.45,2.62-3.67,6.29-3.67,11.02v38.38h-21.66v-70.68h21.66v9.37
			c2.2-3.12,5.15-5.59,8.87-7.41c3.71-1.81,7.89-2.72,12.54-2.72C668.92,390.62,675.53,393.3,680.47,398.66z"/>
		<path class="st0" d="M776.79,431.91h-49.02c0.34,4.39,1.75,7.75,4.24,10.07c2.49,2.32,5.55,3.48,9.18,3.48
			c5.4,0,9.16-2.28,11.27-6.84h23.05c-1.18,4.64-3.32,8.82-6.4,12.54c-3.08,3.72-6.95,6.63-11.59,8.74
			c-4.64,2.11-9.84,3.17-15.58,3.17c-6.92,0-13.09-1.48-18.49-4.43c-5.4-2.95-9.63-7.18-12.67-12.67
			c-3.04-5.49-4.56-11.91-4.56-19.25c0-7.35,1.5-13.76,4.5-19.25c3-5.49,7.2-9.71,12.6-12.67c5.4-2.96,11.61-4.43,18.62-4.43
			c6.84,0,12.92,1.44,18.24,4.31c5.32,2.87,9.48,6.97,12.48,12.29c3,5.32,4.5,11.53,4.5,18.62
			C777.17,427.6,777.05,429.71,776.79,431.91z M755.01,419.88c0-3.72-1.27-6.67-3.8-8.87c-2.53-2.19-5.7-3.29-9.5-3.29
			c-3.63,0-6.69,1.06-9.18,3.17c-2.49,2.11-4.03,5.11-4.62,8.99H755.01z"/>
		<path class="st0" d="M827.33,393.97c3.8-2.24,8.02-3.36,12.67-3.36v22.93h-5.95c-5.41,0-9.46,1.16-12.16,3.48
			c-2.7,2.32-4.05,6.4-4.05,12.22v32.81h-21.66v-70.68h21.66v11.78C820.37,399.27,823.53,396.21,827.33,393.97z"/>
	</g>
</g>
<g id="Chien">
	<g>
		<g>
			<g>
				<path class="st0" d="M416.49,298.37l-0.02,0.01L416.49,298.37C416.49,298.37,416.49,298.37,416.49,298.37z"/>
				<path class="st0" d="M392.46,291.56L392.46,291.56c0.15,0.2,0.29,0.39,0.44,0.59C392.76,291.95,392.61,291.76,392.46,291.56z
					 M396.26,296.71c0.05,0.07,0.1,0.14,0.15,0.21c0,0,0,0,0,0c0,0,0,0,0,0C396.36,296.85,396.31,296.78,396.26,296.71z
					 M398.19,299.43c-0.01-0.01-0.02-0.02-0.03-0.03C398.17,299.4,398.18,299.41,398.19,299.43c0.11,0.16,0.22,0.32,0.33,0.49
					C398.41,299.75,398.3,299.59,398.19,299.43z M400.83,303.3c-0.09-0.14-0.18-0.27-0.28-0.41
					C400.65,303.03,400.74,303.17,400.83,303.3c0.01,0.02,0.02,0.04,0.04,0.06C400.85,303.34,400.84,303.32,400.83,303.3z
					 M407.59,314.17c0,0,0-0.01-0.01-0.01c-0.01-0.01-0.02-0.03-0.03-0.04C407.57,314.13,407.58,314.15,407.59,314.17
					c0,0,0,0.01,0,0.01C407.59,314.17,407.59,314.17,407.59,314.17z M437.53,303.74c-0.51,0.18-1.01,0.36-1.5,0.53
					C436.51,304.1,437.01,303.93,437.53,303.74L437.53,303.74L437.53,303.74z M450.26,299.23c0.05-0.02,0.09-0.03,0.14-0.05
					c0.27-0.1,0.55-0.2,0.83-0.3C450.9,299,450.58,299.12,450.26,299.23z M493.81,283.8c-0.88,0.32-1.76,0.63-2.63,0.94
					C492.05,284.43,492.92,284.12,493.81,283.8c1.15-0.41,2.32-0.82,3.51-1.24C496.13,282.98,494.96,283.4,493.81,283.8z
					 M483,287.64c1.01-0.36,2.04-0.72,3.08-1.09C485.04,286.92,484.01,287.28,483,287.64z M474.74,290.56
					C474.74,290.56,474.74,290.56,474.74,290.56c0.21-0.07,0.42-0.14,0.62-0.22C475.15,290.42,474.94,290.49,474.74,290.56z"/>
			</g>
			<path class="st0" d="M483,287.64c1.01-0.36,2.04-0.72,3.08-1.09C485.04,286.92,484.01,287.28,483,287.64z M483,287.64
				c1.01-0.36,2.04-0.72,3.08-1.09C485.04,286.92,484.01,287.28,483,287.64z M339.09,247.28L339.09,247.28c-0.01,0-0.01,0-0.01,0
				c0.14,0.05,0.27,0.1,0.4,0.15c0.49,0.18,0.97,0.35,1.45,0.54C340.33,247.73,339.71,247.5,339.09,247.28z M343.99,249.23
				c0.81,0.36,1.61,0.73,2.42,1.12C345.61,249.97,344.8,249.59,343.99,249.23z M358.01,257.22c-0.37-0.26-0.74-0.52-1.12-0.76
				C357.27,256.71,357.64,256.97,358.01,257.22c0.1,0.07,0.2,0.14,0.3,0.21C358.22,257.36,358.11,257.3,358.01,257.22z M483,287.64
				c1.01-0.36,2.04-0.72,3.08-1.09C485.04,286.92,484.01,287.28,483,287.64z"/>
		</g>
		<path class="st0" d="M340.94,247.97c-0.48-0.19-0.97-0.36-1.45-0.54c-0.13-0.05-0.27-0.1-0.4-0.15v0c0,0,0,0,0.01,0h0
			C339.71,247.5,340.33,247.73,340.94,247.97z"/>
		<path class="st0" d="M346.41,250.36c-0.8-0.39-1.61-0.76-2.42-1.12C344.8,249.59,345.61,249.97,346.41,250.36z"/>
		<path class="st0" d="M358.31,257.44c-0.1-0.07-0.2-0.14-0.3-0.21c-0.37-0.26-0.74-0.52-1.12-0.77c0.38,0.25,0.75,0.5,1.12,0.76
			C358.11,257.3,358.22,257.36,358.31,257.44z"/>
		<polygon class="st0" points="396.41,296.91 396.41,296.92 396.41,296.91 		"/>
		<path class="st0" d="M398.52,299.91c-0.11-0.16-0.23-0.32-0.34-0.49h0C398.3,299.59,398.41,299.75,398.52,299.91z"/>
		<path class="st0" d="M400.87,303.36c-0.02-0.02-0.03-0.04-0.04-0.06h0C400.84,303.32,400.85,303.34,400.87,303.36z"/>
		<path class="st0" d="M407.58,314.15C407.58,314.16,407.58,314.16,407.58,314.15c-0.01-0.01-0.02-0.02-0.03-0.04
			C407.57,314.13,407.57,314.14,407.58,314.15z"/>
		<polygon class="st0" points="407.6,314.18 407.58,314.16 407.59,314.17 		"/>
		<g>
			<g>
				<path class="st0" d="M503.1,277.07c-2.1-9.46-7-15.6-12.76-16.04c-0.13-0.01-0.27-0.02-0.41-0.03c-0.03,0-0.06,0-0.08,0
					c-0.07,0-0.14,0-0.21,0c-0.21,0-0.42,0.01-0.63,0.02c-2.89,0.21-5.61,1.84-7.87,4.7l-3.91,1.28l-13.37,4.36
					c-1.05-0.4-2.13-0.61-3.25-0.61c-3.01,0-5.83,1.54-8.17,4.33l-21.56,7.03c-0.35-0.04-0.7-0.06-1.05-0.06
					c-2.49,0-4.77,0.9-6.75,2.61l-25.87,8.43c5.82,7.9,9.86,14.48,11.76,17.68c3.12-1.09,10.53-3.71,28.09-9.92
					c0.01,0,0.02,0,0.02-0.01c0.17,0.87,0.31,1.81,0.43,2.8c0,0.04,0.01,0.08,0.01,0.11h0l0,0c-0.51,0.18-1.01,0.36-1.5,0.53
					c0,0,0,0,0,0c-0.44,0.16-0.87,0.31-1.29,0.46c-0.21,0.08-0.42,0.15-0.63,0.22c-0.42,0.15-0.83,0.29-1.23,0.43l0,0
					c-0.4,0.14-0.8,0.28-1.19,0.42c-0.98,0.35-1.92,0.68-2.83,1c-0.36,0.13-0.71,0.25-1.06,0.37l0,0c-0.35,0.12-0.69,0.24-1.03,0.36
					c-0.67,0.24-1.32,0.47-1.95,0.69c-0.31,0.11-0.62,0.22-0.92,0.32c-1.06,0.38-2.05,0.72-2.97,1.05
					c-0.33,0.12-0.65,0.23-0.96,0.33c-0.07,0.03-0.13,0.05-0.2,0.07c-0.37,0.13-0.73,0.26-1.08,0.38c-1.34,0.48-2.52,0.89-3.56,1.26
					c-0.09,0.03-0.17,0.06-0.26,0.09c-0.01,0-0.02,0.01-0.03,0.01c-0.03,0.01-0.06,0.02-0.1,0.03c-0.01,0-0.02,0.01-0.03,0.01
					c-0.12,0.05-0.24,0.09-0.36,0.13c-0.17,0.06-0.33,0.12-0.48,0.17c-0.11,0.04-0.21,0.07-0.31,0.11
					c-0.25,0.09-0.49,0.17-0.72,0.25c-0.14,0.05-0.28,0.1-0.41,0.15c-0.87,0.31-1.58,0.56-2.16,0.76c-0.16,0.06-0.31,0.11-0.45,0.16
					c-0.35,0.12-0.65,0.23-0.89,0.31c-0.1,0.04-0.19,0.07-0.27,0.09c-0.08,0.03-0.16,0.06-0.23,0.08c-0.05,0.02-0.1,0.04-0.15,0.05
					c-0.08,0.03-0.15,0.06-0.22,0.08c-0.04,0.02-0.08,0.03-0.11,0.04c-0.08,0.03-0.14,0.05-0.18,0.06c-0.01,0-0.02,0.01-0.03,0.01
					c-0.03,0.01-0.05,0.02-0.06,0.02c0,0-0.01,0-0.01,0c-0.01,0-0.02,0-0.02,0s-0.01-0.02-0.04-0.07c-0.01-0.01-0.02-0.03-0.03-0.05
					c0,0-0.01-0.01-0.01-0.02c-0.01-0.02-0.02-0.03-0.03-0.05c-0.08-0.15-0.21-0.37-0.39-0.68c-0.05-0.08-0.1-0.17-0.15-0.27
					c-0.05-0.08-0.09-0.16-0.15-0.25c-0.04-0.06-0.08-0.13-0.11-0.2c-0.04-0.07-0.08-0.14-0.12-0.21c-0.09-0.14-0.17-0.29-0.27-0.45
					c-0.08-0.14-0.17-0.29-0.26-0.44c-0.03-0.05-0.05-0.09-0.08-0.14c-0.04-0.06-0.08-0.13-0.12-0.2c-0.03-0.05-0.05-0.09-0.08-0.14
					c-0.08-0.14-0.17-0.28-0.26-0.43c-0.12-0.2-0.24-0.4-0.37-0.61c-0.13-0.21-0.26-0.43-0.4-0.65c-0.11-0.17-0.21-0.34-0.32-0.52
					c-0.11-0.18-0.22-0.36-0.34-0.54c-0.15-0.24-0.31-0.5-0.47-0.75c-0.14-0.22-0.29-0.45-0.44-0.68c-0.11-0.17-0.22-0.34-0.33-0.51
					c-0.12-0.19-0.24-0.38-0.37-0.57c-0.24-0.37-0.49-0.75-0.74-1.14c-0.2-0.3-0.4-0.6-0.6-0.91c-0.1-0.15-0.21-0.31-0.31-0.46
					c-0.02-0.02-0.03-0.04-0.04-0.06c-0.09-0.14-0.18-0.27-0.27-0.41c-0.21-0.32-0.43-0.64-0.65-0.97c-0.44-0.65-0.9-1.32-1.38-2.01
					c-0.11-0.16-0.23-0.32-0.34-0.49c-0.01-0.01-0.02-0.02-0.02-0.03c-0.36-0.52-0.74-1.06-1.12-1.6c-0.13-0.18-0.26-0.36-0.39-0.54
					c-0.08-0.11-0.16-0.23-0.24-0.34c0,0,0,0,0,0c-0.05-0.07-0.1-0.14-0.15-0.21c-0.25-0.35-0.5-0.7-0.76-1.05
					c-0.05-0.06-0.09-0.12-0.14-0.18c-0.2-0.27-0.39-0.54-0.59-0.81c-0.61-0.82-1.23-1.66-1.87-2.51c-0.15-0.2-0.3-0.39-0.45-0.59
					c-0.54-0.71-1.09-1.43-1.66-2.15c-0.28-0.36-0.57-0.72-0.86-1.09s-0.58-0.73-0.88-1.1c-0.59-0.74-1.19-1.47-1.81-2.22
					c-0.61-0.74-1.24-1.49-1.88-2.24c-0.32-0.38-0.64-0.75-0.96-1.13c-0.36-0.42-0.73-0.84-1.11-1.27
					c-0.29-0.33-0.58-0.66-0.87-0.99c-0.93-1.04-1.87-2.08-2.84-3.11c-0.14-0.15-0.29-0.31-0.43-0.46
					c-0.14-0.15-0.29-0.31-0.44-0.46c-0.27-0.28-0.53-0.56-0.8-0.84c-0.6-0.62-1.2-1.25-1.82-1.87c-0.36-0.37-0.74-0.74-1.11-1.11
					c-0.32-0.32-0.64-0.63-0.96-0.95c-0.33-0.32-0.65-0.63-0.99-0.95c-0.17-0.17-0.35-0.33-0.52-0.5c-0.7-0.66-1.4-1.31-2.11-1.96
					c-0.39-0.36-0.79-0.71-1.18-1.06c-0.35-0.32-0.71-0.63-1.06-0.94c-0.05-0.04-0.09-0.08-0.13-0.11
					c-0.37-0.32-0.74-0.64-1.12-0.96c-0.1-0.08-0.2-0.17-0.3-0.25c-0.28-0.24-0.57-0.48-0.86-0.72c-0.37-0.31-0.74-0.61-1.11-0.91
					c-0.23-0.19-0.46-0.37-0.69-0.55c-0.68-0.55-1.37-1.09-2.07-1.61l-0.55-0.42c-0.23-0.17-0.46-0.34-0.68-0.51
					c-0.77-0.58-1.56-1.14-2.35-1.69c-0.1-0.07-0.2-0.14-0.3-0.21c-0.37-0.26-0.74-0.52-1.12-0.77c-0.44-0.3-0.87-0.59-1.31-0.87
					c-0.41-0.27-0.83-0.54-1.25-0.8c-0.03-0.02-0.06-0.04-0.09-0.06c-0.26-0.16-0.51-0.32-0.77-0.48c-0.79-0.49-1.58-0.96-2.38-1.41
					c-0.37-0.21-0.74-0.42-1.12-0.63c-0.38-0.21-0.76-0.41-1.14-0.61c-0.03-0.02-0.07-0.04-0.11-0.06c-0.37-0.2-0.75-0.39-1.12-0.58
					c-0.4-0.2-0.79-0.4-1.19-0.6c-0.8-0.39-1.61-0.76-2.42-1.12c-0.29-0.13-0.58-0.26-0.87-0.38c-0.42-0.18-0.85-0.36-1.27-0.53
					c-0.3-0.12-0.61-0.24-0.92-0.36c-0.48-0.19-0.97-0.36-1.45-0.54c-0.13-0.05-0.27-0.1-0.4-0.15v15.58
					c22.05,7.79,41.02,30.14,53.37,46.37c9.59,12.58,15.2,22.73,15.2,22.73s0.55-0.18,11.78-4.16l0.04,0.08
					c2.73,4.99,6.41,7.75,10.35,7.75c6.06,0,11.21-6.11,13.43-15.94c0.02-0.11,0.05-0.21,0.07-0.32c2.28-0.81,4.72-1.67,7.31-2.58
					l0.04,0.08c2.75,4.89,6.18,7.47,9.94,7.47c5.95,0,11.06-5.94,13.33-15.51c0.03-0.11,0.05-0.22,0.08-0.33
					c1.64-0.58,3.33-1.18,5.06-1.79l0.04,0.08c2.72,4.96,6.55,7.81,10.52,7.81c6.58,0,12.03-7.19,13.9-18.32
					c0.46-2.69,0.69-5.54,0.69-8.47C504.23,284.01,503.85,280.4,503.1,277.07z M416.47,298.38l0.01-0.02c0,0,0,0,0.01,0.01
					L416.47,298.38z M435.65,322.07c-1.57,4.23-3.83,6.94-5.82,6.94c-1.32,0-2.83-1.24-4.15-3.42
					C428.53,324.59,431.83,323.42,435.65,322.07z M442.7,317.12c-0.13,0.78-0.29,1.57-0.46,2.32c-0.02,0.11-0.05,0.21-0.08,0.32
					c-2.14,9.15-6.85,14.81-12.34,14.81c-3.4,0-6.63-2.37-9.13-6.67c1.29-0.45,2.7-0.95,4.26-1.5c1.49,2.36,3.21,3.65,4.87,3.65
					c2.57,0,5.17-3,6.94-8.03c0.05-0.13,0.09-0.26,0.13-0.4c0.17-0.49,0.32-0.99,0.47-1.49c0.97-3.4,1.48-7.31,1.48-11.32
					c0-1.83-0.1-3.62-0.3-5.32c0-0.04-0.01-0.08-0.02-0.12c0,0,0,0,0-0.01c-0.12-1.02-0.28-2-0.46-2.9c0-0.02,0-0.03-0.01-0.05
					c-1.48-7.56-4.87-12.84-8.24-12.84c-2.85,0-5.42,2.88-7.06,7.89c-0.05,0.16-0.1,0.32-0.16,0.5l-0.56,2.21
					c-0.42,0.46-1,0.82-1.67,1.03c-1.44,0.45-2.84,0.06-3.33-0.89l1.2-3.36c2.24-7.57,6.46-11.91,11.58-11.91
					c5.58,0,10.35,5.85,12.45,15.26c0.05,0.2,0.09,0.41,0.13,0.61c0.2,0.96,0.36,1.88,0.48,2.8c0,0.03,0.01,0.07,0.02,0.1v0
					c0.31,2.24,0.47,4.59,0.47,6.98C443.38,311.68,443.15,314.48,442.7,317.12z M450.39,299.19c-0.05,0.02-0.09,0.03-0.14,0.05
					c-0.2,0.08-0.4,0.15-0.6,0.21c-0.16,0.06-0.32,0.12-0.48,0.17c-0.04,0.02-0.08,0.03-0.12,0.05c-0.04,0.02-0.08,0.03-0.12,0.05
					c-0.2,0.07-0.4,0.14-0.6,0.21c-0.2,0.07-0.4,0.14-0.59,0.21c-0.32,0.11-0.63,0.22-0.94,0.33c-0.22,0.08-0.43,0.15-0.65,0.23
					c-0.02,0.01-0.03,0.02-0.05,0.02c-0.46,0.17-0.91,0.32-1.36,0.49c-0.28,0.1-0.56,0.2-0.83,0.29c0,0,0,0,0-0.01
					c-0.13-0.94-0.3-1.89-0.51-2.89l3.13-1.11l21.37-7.57l0.04-0.02c0.17,0.94,0.31,1.88,0.41,2.81c0,0.04,0.01,0.08,0.01,0.12v0
					c-0.31,0.11-0.61,0.22-0.91,0.32c-0.55,0.2-1.1,0.39-1.65,0.58c-0.46,0.16-0.92,0.32-1.37,0.49c-1.24,0.44-2.46,0.87-3.65,1.29
					c-0.57,0.2-1.14,0.4-1.69,0.6c-0.15,0.06-0.31,0.11-0.46,0.16c-0.06,0.02-0.13,0.05-0.19,0.07c-0.28,0.1-0.56,0.2-0.83,0.29
					c-0.06,0.02-0.12,0.05-0.18,0.06c-0.27,0.1-0.55,0.2-0.82,0.29c-0.81,0.29-1.61,0.57-2.39,0.85c-0.52,0.18-1.04,0.37-1.55,0.55
					c-0.26,0.09-0.51,0.18-0.76,0.27C451.38,298.84,450.88,299.02,450.39,299.19z M466.25,311.24c-1.57,4.01-3.71,6.48-5.64,6.48
					c-1.34,0-2.46-0.94-3.76-3.15C459.8,313.53,462.93,312.41,466.25,311.24z M473.48,305.82c-0.16,0.94-0.34,1.87-0.55,2.75
					c-0.03,0.11-0.05,0.22-0.08,0.33c-2.19,8.88-6.86,14.38-12.24,14.38c-3.27,0-6.2-2.16-8.72-6.41c1.37-0.48,2.78-0.98,4.24-1.5
					c1.44,2.37,2.8,3.38,4.48,3.38c2.47,0,5-2.83,6.77-7.57c0.05-0.14,0.1-0.27,0.15-0.41c0.23-0.62,0.43-1.28,0.62-1.94
					c0.97-3.4,1.49-7.31,1.49-11.32c0-1.7-0.09-3.36-0.26-4.93c0-0.04-0.01-0.08-0.02-0.12c0,0,0,0,0,0
					c-0.11-0.97-0.25-1.95-0.43-2.93c-0.02-0.14-0.05-0.27-0.08-0.41c-1.48-7.56-4.87-12.84-8.24-12.84c-2.73,0-5.64,3.58-7.41,9.12
					l-0.02,0.08c-0.02,0.05-0.03,0.1-0.05,0.15l-0.3,1.11c-0.4,0.63-1.11,1.14-1.96,1.4c-1.1,0.34-2.24,0.18-2.93-0.38
					c0.02-0.12,0.05-0.25,0.08-0.38c0.26-1.27,0.6-2.37,0.91-3.28c0.05-0.18,0.11-0.35,0.17-0.52l0.07-0.21
					c1.31-3.93,3.16-7,5.33-8.99c1.85-1.7,3.93-2.62,6.1-2.62c0.5,0,1,0.05,1.49,0.14h0c4.93,0.94,9.05,6.55,10.95,15.12
					c0.07,0.32,0.14,0.64,0.21,0.97c0.18,0.9,0.33,1.84,0.46,2.8c0,0.03,0.01,0.07,0.02,0.11v0c0.28,2.11,0.42,4.33,0.42,6.6
					C474.16,300.39,473.93,303.18,473.48,305.82z M478.23,289.33c-0.49,0.17-0.97,0.34-1.45,0.51s-0.95,0.34-1.43,0.5
					c-0.21,0.08-0.42,0.15-0.62,0.22c0,0,0,0,0,0c-0.13-1-0.29-1.97-0.49-2.9c5.71-2.01,11.89-4.22,18.58-6.58l2.54-0.9l1.48-0.52
					l0.02,0c0.18,0.93,0.33,1.87,0.44,2.8c0,0.04,0.01,0.08,0.01,0.11v0c-1.19,0.42-2.35,0.84-3.51,1.25
					c-0.89,0.32-1.76,0.62-2.63,0.93h0c-0.87,0.31-1.73,0.61-2.58,0.91c-0.85,0.3-1.69,0.6-2.52,0.9c-1.04,0.37-2.07,0.73-3.08,1.09
					c-0.2,0.07-0.41,0.14-0.61,0.21c-0.41,0.14-0.81,0.28-1.2,0.43C480.19,288.64,479.2,288.98,478.23,289.33z M495.52,300.87
					c-1.58,4.33-3.86,7.11-5.89,7.11c-1.36,0-2.86-1.25-4.21-3.52C488.65,303.3,492.01,302.1,495.52,300.87z M502.51,296.08
					c-0.05,0.32-0.11,0.63-0.17,0.94c-0.1,0.52-0.21,1.04-0.32,1.54c-2.11,9.18-6.83,14.98-12.39,14.98c-3.44,0-6.81-2.45-9.31-6.74
					c1.43-0.51,2.89-1.02,4.37-1.55c1.51,2.43,3.25,3.76,4.94,3.76c2.61,0,5.23-3.07,7.01-8.2c0.05-0.13,0.09-0.26,0.13-0.39
					c0.14-0.43,0.28-0.87,0.41-1.32c0.97-3.4,1.48-7.32,1.48-11.32c0-1.88-0.11-3.72-0.32-5.46c0-0.04-0.01-0.08-0.02-0.11
					c0,0,0,0,0,0c-0.11-0.93-0.26-1.87-0.45-2.81c-0.01-0.03-0.02-0.07-0.02-0.11c-0.14-0.7-0.29-1.38-0.46-2.04c0,0,0-0.01,0-0.01
					c-1.47-5.7-4.06-9.73-6.76-10.53v0c-0.33-0.1-0.66-0.15-0.99-0.15c-2.05,0-4.19,1.99-5.87,5.45c-0.52,1.08-1.03,2.36-1.43,3.62
					l0,0.02c-0.02,0.05-0.03,0.09-0.04,0.13l-0.3,1.06c-0.4,0.66-1.11,1.18-1.98,1.45c-1.09,0.34-2.23,0.19-2.93-0.36
					c0.04-0.2,0.08-0.4,0.12-0.6c0.24-1.12,0.49-2.06,0.79-3.04c0.11-0.36,0.23-0.72,0.36-1.09c0.64-1.83,1.4-3.48,2.26-4.91
					c0.75-1.25,1.56-2.31,2.43-3.19h0c1.97-2.01,4.2-3.06,6.58-3.06c0.2,0,0.41,0.01,0.61,0.03c0.17,0.01,0.33,0.03,0.49,0.05
					c0,0,0,0,0,0c5.09,0.72,9.41,6.47,11.35,15.18c0.73,3.26,1.1,6.78,1.1,10.48C503.19,290.66,502.96,293.45,502.51,296.08z"/>
			</g>
			<g>
				<path class="st0" d="M360.35,243.09c-2.2,0.51-4.18,0.97-5.95,1.36h-0.01c-0.19,0.04-0.38,0.08-0.56,0.12
					c-0.37,0.08-0.73,0.16-1.08,0.24c-1.76,0.39-3.3,0.71-4.65,0.99c-0.27,0.06-0.53,0.11-0.78,0.16c-0.4,0.08-0.77,0.15-1.13,0.23
					c-0.2,0.04-0.39,0.08-0.58,0.11c-0.03,0.01-0.06,0.02-0.09,0.02c-0.18,0.04-0.36,0.07-0.53,0.1c-0.02,0.01-0.04,0.01-0.05,0.01
					c-0.2,0.04-0.4,0.07-0.59,0.11c-0.02,0-0.03,0.01-0.04,0.01c-0.22,0.04-0.43,0.08-0.63,0.11c-0.22,0.04-0.43,0.08-0.63,0.11
					c-0.21,0.03-0.4,0.07-0.59,0.1c-0.1,0.02-0.2,0.03-0.29,0.05c-0.07,0.01-0.13,0.02-0.2,0.03c-0.08,0.02-0.15,0.03-0.23,0.03
					c-0.1,0.02-0.19,0.03-0.28,0.05c-0.31,0.05-0.58,0.09-0.82,0.12c-0.04,0-0.08,0.01-0.12,0.02c-0.05,0.01-0.1,0.01-0.14,0.02
					c-0.07,0.01-0.13,0.02-0.2,0.02c-0.14,0.02-0.26,0.03-0.36,0.04c-0.03,0-0.05,0.01-0.08,0.01c-0.43,0.04-0.61,0.04-0.65,0.04
					c4.96-1.48,9.67-2.89,14.13-4.21c1.78-0.54,3.54-1.06,5.25-1.56C359.07,242.06,359.69,242.58,360.35,243.09z"/>
				<path class="st0" d="M489.02,260.02c-1.67-1.47-37.5-33-50.62-37.29c-2,0.55-3.98,1.1-5.89,1.62c-1.82,0.5-3.61,0.99-5.36,1.47
					c0-0.02,0-0.05,0.02-0.06c0.1-0.41,0.2-0.8,0.29-1.2c0.09-0.39,0.16-0.77,0.23-1.16c0.07-0.45,0.14-0.9,0.2-1.35
					c0.03-0.2,0.05-0.41,0.08-0.62c0.02-0.2,0.04-0.41,0.05-0.61h0.02c1.66-0.49,2.99-0.9,4.1-1.22h0.02c0,0,0.01,0,0.01,0
					c5.11-1.53,5.11-1.53,5.11-1.53S468.47,235.47,489.02,260.02z"/>
			</g>
		</g>
		<path class="st0" d="M416.49,298.37l-0.01,0.02L416.49,298.37C416.49,298.37,416.49,298.37,416.49,298.37z"/>
		<path class="st0" d="M416.49,298.37l-0.02,0.01L416.49,298.37C416.49,298.37,416.49,298.37,416.49,298.37z"/>
		<g>
			<path class="st0" d="M432.22,220.17c-0.02-0.2-0.04-0.39-0.06-0.58c-0.09-0.83-0.23-1.66-0.39-2.47c-0.29-1.76-1.03-4.02-2-6.14
				c0.27,0.67,0.53,1.35,0.77,2.05l0,0c0.08,0.24,0.16,0.48,0.24,0.72c0.02,0.05,0.03,0.11,0.05,0.16c0,0.02,0.01,0.03,0.02,0.05
				c0.08,0.23,0.14,0.46,0.21,0.7c0,0,0,0,0,0.01c0.05,0.18,0.1,0.36,0.15,0.54c0.01,0.02,0.02,0.05,0.02,0.06v0.02
				c0.1,0.35,0.19,0.71,0.27,1.06c0.04,0.18,0.08,0.35,0.12,0.53c0.04,0.16,0.08,0.32,0.11,0.49c0.01,0.04,0.02,0.08,0.03,0.12
				c0.03,0.15,0.06,0.31,0.09,0.47c0.11,0.54,0.2,1.09,0.29,1.64c0.01,0.04,0.01,0.08,0.02,0.12c0,0.01,0.01,0.02,0.01,0.03
				c0.03,0.18,0.05,0.36,0.07,0.53C432.23,220.24,432.22,220.21,432.22,220.17z"/>
			<path class="st0" d="M432.41,222.01c-0.04-0.57-0.1-1.15-0.17-1.71v-0.02c0-0.04-0.01-0.08-0.02-0.12c0,0.04,0.01,0.07,0.01,0.11
				c-0.02-0.18-0.05-0.36-0.07-0.53c0-0.01,0-0.02-0.01-0.03c0-0.04-0.01-0.08-0.02-0.12c-0.08-0.55-0.18-1.09-0.28-1.64
				c-0.03-0.15-0.06-0.31-0.09-0.47c-0.01-0.04-0.02-0.08-0.03-0.12c-0.03-0.16-0.07-0.32-0.11-0.49c-0.04-0.18-0.08-0.36-0.12-0.53
				c-0.09-0.36-0.18-0.71-0.28-1.06v-0.02c0-0.03,0-0.05-0.02-0.06c-0.05-0.18-0.1-0.37-0.15-0.55c0,0,0-0.01,0-0.01
				c-0.07-0.23-0.14-0.47-0.21-0.7c0-0.02-0.01-0.03-0.02-0.05c-0.02-0.05-0.03-0.11-0.05-0.16c-0.08-0.24-0.16-0.49-0.24-0.73
				c-0.23-0.7-0.49-1.38-0.77-2.05c-0.03-0.09-0.08-0.14-0.1-0.21c-0.54-1.06-1.19-1.69-1.81-2.6l-0.45-0.3
				c-0.26-0.11-0.51-0.23-0.77-0.36c-3.31-1.58-6.43-3.54-9.28-5.83v0.06c-0.14-0.13-0.29-0.26-0.43-0.41
				c0.14,0.13,0.29,0.24,0.43,0.35c0.65-6.43,0.09-12.84-0.83-19.19c-1.03-6.73-2.54-13.37-4.47-19.92
				c-1.17-3.92-2.48-7.82-4.02-11.62c-0.65-1.55-1.38-3.13-2.45-4.45c-5.54-6.08-14.78-6.31-22.28-4.09
				c-0.44-0.32-0.87-0.64-1.31-0.94c-0.42-0.3-0.87-0.59-1.31-0.88c-7.75-5.08-16.91-7.98-26.18-8.33
				c-3.25-0.12-6.55,0.07-9.77,0.51c-16.1,2.22-30.84,12.53-37.99,27.05c-9.69,4.44-17.89,12.49-16.16,24.02
				c1.13,8.85,1.51,17.71,2.41,26.6c1.44,12.37,3.18,35.04,16.48,40.5l0.7,0.29l0.8-0.02c9.31-0.36,16.64-10.99,21.9-21.74
				c4.33,5.32,10.16,9.43,16.49,12.08c1.23,0.51,2.48,0.97,3.74,1.4c0.05,0.04,0.08,0.1,0.12,0.14c0.38,0.48,0.77,0.93,1.16,1.38
				h0.01c6.6,7.46,16.59,11.84,26.59,11.2c10.2-0.48,19.8-6.11,25.59-14.45c1,1.06,2.13,2,3.41,2.75c3.25,1.96,6.73,2.2,9.89,1.19
				c4.5-1.32,8.18-5.02,10.14-9.12c1.81-3.65,2.52-7.67,2.49-11.68C432.51,223.56,432.48,222.78,432.41,222.01z M399.45,147.99
				c0.87,0.56,1.61,1.29,2.41,1.97c1.4,1.19,2.67,2.58,3.32,4.34c3.86,9.18,6.81,18.81,8.53,28.63c0.93,5.42,1.55,11.01,1.25,16.52
				c0.62,0.61,1.25,1.22,1.88,1.8c-0.58-0.46-1.16-0.96-1.73-1.46c-0.82-0.73-1.62-1.48-2.41-2.26c-1.04-1.06-2.04-2.14-3-3.28
				c-2.99-3.57-5.68-7.46-7.79-11.61c0.02-0.3,0.03-0.64,0.06-0.87c1.1-13.9-5.21-27.65-15.53-36.83
				C391.04,144.84,395.61,145.47,399.45,147.99z M428.03,220.81c-0.02,0.2-0.05,0.41-0.07,0.61c-0.02,0.21-0.05,0.41-0.08,0.62
				c-0.06,0.45-0.13,0.9-0.2,1.35c-0.08,0.39-0.15,0.77-0.23,1.16c-0.09,0.41-0.19,0.8-0.29,1.2c-0.02,0.02-0.02,0.05-0.02,0.06
				c-0.02,0.02-0.02,0.04-0.02,0.06c-0.1,0.36-0.2,0.73-0.32,1.08c-0.07,0.23-0.14,0.46-0.22,0.7c-0.12,0.35-0.23,0.68-0.36,1.02
				c-0.22,0.55-0.44,1.09-0.67,1.61c-0.13,0.3-0.28,0.59-0.42,0.88c-0.05,0.09-0.09,0.17-0.13,0.24c-0.13,0.26-0.26,0.52-0.42,0.78
				c-0.61,1.11-1.29,2.13-2.04,3.06c-0.2,0.25-0.41,0.48-0.62,0.71c-0.12,0.12-0.22,0.23-0.33,0.35c-0.33,0.35-0.68,0.67-1.04,0.97
				c-0.1,0.1-0.22,0.19-0.33,0.26c-0.2,0.18-0.42,0.35-0.65,0.49c-0.29,0.2-0.59,0.41-0.91,0.57c-0.27,0.17-0.56,0.32-0.87,0.43
				c-0.03,0.03-0.06,0.05-0.09,0.05c-0.29,0.13-0.58,0.25-0.88,0.35c-2.19,0.87-4.74-0.58-6.66-2.54c-0.13-0.13-0.26-0.26-0.38-0.41
				c-0.38-0.39-0.71-0.81-1.02-1.23c0.35-0.68,0.68-1.38,0.97-2.07c0.13-0.29,0.26-0.59,0.38-0.9c0.29-0.67,0.54-1.37,0.79-2.06
				c0.19-0.59,0.38-1.19,0.55-1.78c1.63-0.88,10.29-5.99,8.02-14.68c0-0.02,0-0.02,0-0.03c-0.22-0.84-1.22-1.22-1.97-0.75
				c-1.66,1-3.89,1.93-6.29,2.74c-3.02,1.02-6.34,1.86-9.21,2.51c-2.57,0.58-4.79,1-6.12,1.23c-0.77,0.15-1.25,0.9-1.04,1.66
				c1.23,4.57,4.16,6.64,7.22,7.51c0.26,0.07,0.53,0.15,0.81,0.19c-0.05,0.17-0.1,0.36-0.16,0.54c-0.39,1.16-0.85,2.31-1.39,3.42
				c-0.03,0.04-0.05,0.1-0.07,0.14c-0.22,0.47-0.47,0.93-0.71,1.38c-0.23,0.43-0.49,0.87-0.76,1.29c-0.52,0.85-1.09,1.67-1.68,2.45
				c-0.2,0.26-0.41,0.51-0.61,0.76c-0.22,0.27-0.45,0.55-0.7,0.83c-0.11,0.12-0.21,0.25-0.32,0.37c-0.12,0.13-0.24,0.25-0.36,0.37
				c-0.03,0.06-0.07,0.1-0.13,0.15c-0.22,0.23-0.45,0.46-0.68,0.7c-0.77,0.75-1.58,1.46-2.44,2.13c-2.31,1.81-4.89,3.19-7.61,4.12
				c-0.25,0.09-0.48,0.16-0.71,0.23c-0.2,0.08-0.41,0.13-0.61,0.18c-0.9,0.26-1.8,0.46-2.71,0.62c-0.1,0.02-0.22,0.03-0.32,0.06
				c-3.05,0.48-6.17,0.44-9.21-0.17c-0.42-0.08-0.84-0.18-1.25-0.28c-0.13-0.03-0.26-0.07-0.39-0.1c-0.28-0.08-0.56-0.15-0.85-0.24
				h0c-0.06-0.02-0.12-0.04-0.18-0.06c-0.03-0.01-0.06-0.02-0.09-0.03c-0.01,0-0.02,0-0.03-0.01c-0.01,0-0.01,0-0.01,0
				c-0.08-0.03-0.15-0.05-0.23-0.08c-0.18-0.06-0.35-0.12-0.53-0.18c-0.25-0.09-0.5-0.19-0.76-0.29c-0.2-0.08-0.4-0.16-0.6-0.25
				c-0.25-0.1-0.51-0.22-0.76-0.33c-0.14-0.06-0.29-0.13-0.43-0.2c-0.28-0.12-0.54-0.24-0.8-0.39c-0.36-0.17-0.71-0.36-1.04-0.56
				c-0.26-0.15-0.51-0.29-0.76-0.45c-0.43-0.24-0.84-0.52-1.25-0.8c-0.41-0.27-0.78-0.55-1.16-0.85c-0.07-0.05-0.14-0.1-0.2-0.15
				c-0.65-0.51-1.28-1.03-1.87-1.58c-5.88-5.47-9.3-13.27-9.82-21.32l-2.79-2.16l0.09,1.94c0.1,3.73,0.76,7.44,1.98,11
				c0.29,1.74,2.02,5.55,3.39,8.41c-6.67-2.66-12.84-6.96-17.14-12.68c2.42-5.28,4.33-10.39,5.73-14.07
				c1.77-4.89,3.36-9.76,4.79-14.8l0.05-0.19l0.01-0.1c0.22-1.87,0.06-3.68-0.16-5.53c-0.56-4.24-1.87-8.33-3.54-12.24l-1.03-2.29
				c-1.09-2.2-4.32-0.84-3.49,1.46l0.02,0.07l0.86,2.2c1.71,4.89,3.09,10.14,2.57,15.35c-1.13,3.32-3.51,9.73-5.35,14
				c-1.13,2.61-2.6,5.93-4.32,9.47c-0.49,1.02-1.02,2.08-1.56,3.12c-4.27,8.27-9.78,16.83-15.69,19.52
				c-0.48,0.2-0.93,0.32-1.36,0.38c-8.42-4.28-10.91-24.75-12.23-33.38c-1.1-7.96-1.87-16.07-3.03-24.05
				c-0.04-0.26-0.32-2.05-0.36-2.22c-0.48-2.31-0.48-4.71,0.16-6.95c1.19-4.08,4.18-7.4,7.91-10.04c2.1-1.48,4.45-2.76,6.85-3.83
				c3.61-1.61,7.34-2.79,10.57-3.57c1.02-0.2,1.7-1.17,1.51-2.2c-0.19-1.03-1.17-1.71-2.2-1.54c-1.23,0.23-2.35,0.49-3.54,0.79
				c-1,0.26-2,0.55-3.01,0.85c4.09-5.85,9.82-10.92,17.22-14.59c17.87-8.83,40.48-5.47,54.64,8.68
				c8.15,7.98,13.05,19.28,12.98,30.71l-0.01,0.96l0.36,1.25c0.09,0.2,0.16,0.41,0.25,0.61c3.16,7.32,8.11,13.81,14.24,18.9
				c3.68,3.03,7.9,5.45,12.41,7.02c0.76,1.72,1.26,3.55,1.52,5.42C428.13,217.39,428.17,219.05,428.03,220.81z"/>
			<path class="st0" d="M417.35,201.66v0.06c-0.14-0.13-0.29-0.26-0.43-0.41C417.06,201.44,417.21,201.56,417.35,201.66z"/>
			<path class="st0" d="M400.51,234.28c-0.23,0.43-0.49,0.87-0.76,1.29C400.02,235.15,400.26,234.72,400.51,234.28z"/>
			<path class="st0" d="M417.35,201.66v0.06c-0.14-0.13-0.29-0.26-0.43-0.41C417.06,201.44,417.21,201.56,417.35,201.66z"/>
			<path class="st0" d="M432.23,220.28c-0.02-0.18-0.05-0.36-0.07-0.53c0.02,0.14,0.04,0.28,0.06,0.43
				C432.22,220.21,432.23,220.24,432.23,220.28z"/>
			<path class="st0" d="M359.58,191.97c-4.29,1.4-9.41-2.52-11.44-8.76c-2.03-6.25-0.22-12.43,4.07-13.84
				c4.28-1.39,9.4,2.54,11.43,8.78C365.67,184.39,363.86,190.58,359.58,191.97z"/>
			<path class="st0" d="M389.94,184.25c-3.78,0.58-7.56-3.64-8.43-9.4c-0.87-5.76,1.48-10.89,5.26-11.47
				c3.79-0.56,7.56,3.64,8.43,9.4C396.07,178.55,393.72,183.69,389.94,184.25z"/>
			<path class="st0" d="M399.76,235.57c0.26-0.42,0.52-0.86,0.76-1.29C400.26,234.72,400.02,235.15,399.76,235.57z"/>
		</g>
	</g>
</g>
</svg>
